<svg xmlns="http://www.w3.org/2000/svg" viewBox="0 0 778 500"><svg version="1.1" xmlns:xlink="http://www.w3.org/1999/xlink" xmlns:svgjs="http://svgjs.dev/svgjs" width="389" height="500" viewBox="0 0 389 500" x="0"><rect width="389" height="500" x="0" y="0" fill="#ffffff"/><defs><mask><svg width="389" height="500" viewBox="0 0 35 45" id="SvgjsSvg1383" x="0" y="0"><rect fill="#FFFFFF" width="35" height="45"/><rect y="11" fill="#1677FF" width="35" height="34"/><g><path fill="#333333" d="M26.86,7.36l-0.31,0.68l-0.31-0.68h-0.31l0.49,0.94v0.66h0.28V8.31l0,0l0.49-0.94C27.16,7.36,26.86,7.36,26.86,7.36z M24.55,7.78l0.22,0.66h-0.45L24.55,7.78z M24.85,8.64l0.09,0.32h0.3l-0.58-1.6h-0.23l-0.59,1.6h0.29l0.12-0.32H24.85L24.85,8.64z M22.6,8.13h-0.31V7.58h0.31c0.16,0,0.25,0.14,0.25,0.27C22.87,7.99,22.77,8.13,22.6,8.13z M22.62,7.36H22v1.6h0.29V8.35h0.34c0.31,0,0.52-0.2,0.52-0.49C23.15,7.57,22.94,7.36,22.62,7.36L22.62,7.36z M20.54,8.97h0.29v-1.6h-0.29V8.97z M18.52,7.36v1.6h0.97V8.75h-0.68V7.36H18.52z M16.87,7.78l0.22,0.66h-0.45L16.87,7.78L16.87,7.78z M17.15,8.64l0.1,0.32h0.3l-0.58-1.6h-0.23l-0.59,1.6h0.29l0.12-0.32H17.15L17.15,8.64L17.15,8.64z"/><path fill="#333333" d="M19.19,4.24h-1.24V3.8h1.44V3.53h-1.44V2.96h-0.64l0,0c-0.07,0-0.13,0.06-0.13,0.14v0.43h-1.43V3.8h1.43v0.44h-1.21v0.27h2.4c0,0-0.14,0.51-0.79,1.07c-0.59-0.44-0.79-0.8-0.79-0.8h-0.64c0.26,0.45,0.63,0.81,1.03,1.1c-0.37,0.24-0.84,0.46-1.46,0.65v0.32c0,0,0.94-0.18,1.85-0.71c0.91,0.53,1.83,0.71,1.83,0.71V6.54c-0.55-0.2-1.03-0.46-1.4-0.68C18.54,5.49,19.01,4.95,19.19,4.24L19.19,4.24L19.19,4.24z"/><path fill="#333333" d="M23.21,3.02h-0.65v0.67h-1.58v0.27h1.58v2.41c0,0.05-0.05,0.1-0.1,0.1h-0.32v0.28h0.84c0.14-0.01,0.24-0.12,0.24-0.25V3.96h0.26V3.69h-0.26L23.21,3.02L23.21,3.02z"/><path fill="#333333" d="M21.85,4.42c-0.02-0.05-0.07-0.08-0.13-0.08h-0.53l0.42,1.31h0.64L21.85,4.42L21.85,4.42z"/><path fill="#333333" d="M27.46,6.71l-0.22-0.76c-0.02-0.05-0.06-0.08-0.12-0.08h-0.61l0.18,0.59h-0.7V5.31h1.38V5.05h-1.38V4.52h1.38V4.24h-3.46v0.27h1.38v0.53h-1.38v0.27h1.38v1.13h-1.38v0.27h3.54l0,0H27.46L27.46,6.71L27.46,6.71z"/><polygon fill="#333333" points="20.27,2.99 19.52,4.73 20.1,4.73 20.1,6.81 20.72,6.81 20.72,4.05 20.49,4.05 20.96,2.99  "/><path fill="#333333" d="M24.64,3.59h2.02v0.4h0.72V3.52l0,0c0-0.1-0.08-0.19-0.19-0.2h-1.16V2.95h-0.75v0.37h-1.35v0.67h0.72L24.64,3.59L24.64,3.59L24.64,3.59z"/><path fill="#1677FF" d="M13.35,6.9c1.02,0.34,1.25,0.36,1.25,0.36V3.62c0-0.62-0.5-1.12-1.13-1.12H8.68C8.05,2.5,7.54,3,7.54,3.62v4.76C7.54,9,8.05,9.5,8.68,9.5h4.79c0.63,0,1.13-0.5,1.13-1.12V8.34c0,0-1.83-0.76-2.76-1.21c-0.62,0.75-1.43,1.23-2.25,1.23c-1.4,0-1.9-1.23-1.22-2.03c0.16-0.18,0.4-0.35,0.79-0.43c0.6-0.15,1.55,0.09,2.45,0.39c0.17-0.3,0.3-0.63,0.4-0.96H9.23v-0.3h1.43v-0.5H8.93V4.25h1.72v-0.7c0,0,0-0.12,0.13-0.12h0.69v0.83h1.71v0.27h-1.71v0.5h1.39c-0.14,0.54-0.34,1.04-0.59,1.48C12.69,6.66,13.07,6.81,13.35,6.9L13.35,6.9L13.35,6.9z"/><path fill="#1677FF" d="M9.26,6.3C9.09,6.32,8.75,6.4,8.57,6.56C8.03,7.03,8.35,7.89,9.45,7.89c0.64,0,1.28-0.41,1.77-1.06C10.51,6.48,9.91,6.24,9.26,6.3L9.26,6.3L9.26,6.3z"/></g><path fill="#FFFFFF" d="M7.41,13.09h20.18c0.77,0,1.41,0.64,1.41,1.41l0,0c0,0.77-0.64,1.41-1.41,1.41H7.41C6.64,15.91,6,15.27,6,14.5l0,0C6.01,13.73,6.64,13.09,7.41,13.09z"/><path fill="#FFFFFF" d="M28.5,38.34c0,0.64-0.52,1.16-1.16,1.16H7.66c-0.64,0-1.16-0.52-1.16-1.16V18.66c0-0.64,0.52-1.16,1.16-1.16h19.68c0.64,0,1.16,0.52,1.16,1.16V38.34z"/><g><path fill="#1677FF" d="M11.45,14.1l0.19,0.3c0.04-0.13,0.06-0.26,0.06-0.4h-0.42v-0.23h0.65c0,0.35-0.05,0.64-0.14,0.88l0.18,0.3l-0.21,0.12c-0.03-0.05-0.06-0.11-0.09-0.17c-0.08,0.14-0.18,0.27-0.31,0.39c-0.04-0.09-0.08-0.18-0.12-0.25c0.13-0.12,0.22-0.25,0.29-0.38c-0.08-0.13-0.17-0.29-0.28-0.46L11.45,14.1z M12.31,14.19h0.23c0,0.09-0.01,0.18-0.02,0.27c0.1,0.34,0.27,0.56,0.49,0.65c-0.05,0.07-0.09,0.15-0.14,0.23c-0.2-0.11-0.34-0.29-0.43-0.54c-0.09,0.24-0.24,0.43-0.46,0.58c-0.04-0.06-0.11-0.13-0.2-0.21c0.18-0.1,0.32-0.23,0.4-0.39C12.27,14.63,12.31,14.42,12.31,14.19z M12.97,13.86v0.21l-0.08,0.33l-0.23-0.05l0.08-0.28h-0.48c-0.05,0.14-0.09,0.26-0.15,0.38c-0.04-0.03-0.11-0.06-0.21-0.12c0.11-0.23,0.19-0.47,0.25-0.72l0.23,0.04c-0.02,0.07-0.04,0.15-0.06,0.21H12.97z"/><path fill="#1677FF" d="M14.81,15.09c-0.04,0.1-0.07,0.18-0.09,0.24c-0.6,0-0.96,0-1.08-0.02s-0.22-0.07-0.3-0.16c-0.07,0.08-0.13,0.15-0.19,0.22l-0.1-0.27c0.06-0.06,0.12-0.11,0.17-0.16v-0.5h-0.16V14.2h0.4v0.76c0.05,0.07,0.14,0.11,0.26,0.11c0.12,0.01,0.27,0.01,0.44,0.01C14.34,15.09,14.55,15.09,14.81,15.09z M13.29,13.63c0.1,0.12,0.18,0.23,0.24,0.32l-0.21,0.14c-0.07-0.11-0.14-0.22-0.23-0.33L13.29,13.63z M13.85,14.58c0.05-0.03,0.11-0.06,0.2-0.11c0,0.12,0,0.21,0.01,0.26c-0.19,0.09-0.32,0.16-0.38,0.21l-0.13-0.2c0.05-0.04,0.07-0.1,0.07-0.17v-0.81c0.15-0.03,0.27-0.07,0.36-0.11l0.11,0.2v-0.1h0.64v0.88c0,0.05-0.01,0.09-0.02,0.12s-0.03,0.06-0.06,0.08c-0.03,0.02-0.05,0.03-0.08,0.04c-0.03,0-0.1,0.01-0.2,0.01c-0.01-0.08-0.02-0.16-0.04-0.23c0.05,0,0.07,0.01,0.09,0.01c0.06,0,0.09-0.03,0.09-0.09v-0.58h-0.18v1.09H14.1V13.9c-0.08,0.03-0.16,0.05-0.24,0.07L13.85,14.58L13.85,14.58z"/><path fill="#1677FF" d="M15.15,13.64l0.23,0.06c-0.03,0.13-0.08,0.26-0.12,0.38v1.3h-0.22v-0.81c-0.04,0.08-0.08,0.15-0.13,0.22c-0.01-0.11-0.03-0.22-0.06-0.33C14.99,14.19,15.09,13.92,15.15,13.64z M15.43,14.84l0.15-0.12H15.4v-0.59h0.43v-0.14h-0.48v-0.2h0.48v-0.17h0.23v0.17h0.5v0.2h-0.5v0.14h0.43v0.66h-0.22v-0.07h-0.21C16.05,14.84,16.03,14.93,16,15c0.16,0.06,0.36,0.09,0.59,0.09c-0.05,0.11-0.1,0.19-0.13,0.25c-0.24-0.02-0.44-0.08-0.62-0.17c-0.09,0.06-0.24,0.12-0.43,0.18c-0.03-0.05-0.08-0.12-0.13-0.2c0.15-0.03,0.27-0.07,0.35-0.11C15.57,15,15.5,14.92,15.43,14.84z M15.8,14.92c0.02-0.05,0.03-0.11,0.04-0.19h-0.25C15.65,14.8,15.72,14.86,15.8,14.92z M15.64,14.53h0.2v-0.2h-0.2V14.53z M16.28,14.53v-0.2h-0.21v0.2H16.28z"/><path fill="#1677FF" d="M18.3,15.09c0,0.07-0.02,0.13-0.05,0.17c-0.03,0.04-0.09,0.06-0.16,0.07s-0.16,0.01-0.28,0.01c-0.02-0.09-0.04-0.18-0.07-0.25c0.12,0.01,0.19,0.01,0.2,0.01c0.07,0,0.11-0.04,0.11-0.11v-0.16h-0.37v0.49h-0.25v-0.49h-0.38c-0.02,0.26-0.07,0.44-0.15,0.54c-0.07-0.05-0.15-0.1-0.23-0.15c0.09-0.13,0.14-0.36,0.14-0.69V13.7h1.48L18.3,15.09L18.3,15.09z M17.07,14.16h0.37v-0.22h-0.37V14.16z M17.07,14.6h0.37v-0.22h-0.37V14.6z M18.05,13.93h-0.37v0.22h0.37V13.93z M17.69,14.6h0.37v-0.22h-0.37V14.6z"/><path fill="#1677FF" d="M19.96,14.26v0.21c-0.1,0.19-0.23,0.35-0.39,0.48c0.18,0.08,0.39,0.13,0.63,0.15c-0.05,0.08-0.1,0.17-0.14,0.26c-0.27-0.04-0.51-0.12-0.72-0.25c-0.21,0.12-0.46,0.21-0.74,0.26c-0.05-0.09-0.09-0.17-0.14-0.24c0.25-0.03,0.47-0.09,0.65-0.18c-0.13-0.1-0.24-0.23-0.34-0.37l0.16-0.1h-0.28v-0.22h0.56v-0.2h-0.69v-0.22h0.69v-0.22h0.27v0.22h0.69v0.22h-0.69v0.2C19.48,14.26,19.96,14.26,19.96,14.26z M19.33,14.82c0.13-0.09,0.24-0.21,0.33-0.34h-0.67C19.08,14.61,19.19,14.73,19.33,14.82z"/><path fill="#1677FF" d="M20.62,13.61l0.23,0.06c-0.04,0.11-0.08,0.22-0.12,0.32v1.36h-0.24v-0.89c-0.05,0.08-0.1,0.15-0.15,0.22c-0.02-0.07-0.04-0.18-0.08-0.32C20.42,14.11,20.53,13.86,20.62,13.61z M20.81,13.95h0.72v-0.31h0.25v0.31h0.24v0.23h-0.24v0.85c0,0.09-0.02,0.16-0.05,0.21c-0.03,0.05-0.08,0.08-0.15,0.08c-0.07,0.01-0.19,0.01-0.38,0.01c-0.01-0.08-0.03-0.17-0.06-0.26c0.1,0.01,0.2,0.01,0.28,0.01s0.12-0.04,0.12-0.13v-0.77h-0.72v-0.23C20.82,13.95,20.81,13.95,20.81,13.95z M21.06,14.28c0.12,0.15,0.22,0.29,0.32,0.43l-0.21,0.14c-0.08-0.15-0.18-0.29-0.29-0.44L21.06,14.28z"/><path fill="#1677FF" d="M22.08,15.07h0.73V14.8h-0.58v-0.21h0.57v-0.17h-0.62V14.2h1.48v0.21h-0.61v0.17h0.56v0.21h-0.22c0.05,0.05,0.11,0.1,0.17,0.17l-0.13,0.11h0.34v0.21h-1.71v-0.22h0.02V15.07z M23.74,14.16h-0.25v-0.12h-1.14v0.12H22.1v-0.34h0.68c-0.02-0.06-0.05-0.12-0.07-0.16l0.3-0.03c0.02,0.05,0.04,0.11,0.06,0.19h0.65v0.34H23.74z M23.19,14.9l0.11-0.1h-0.24v0.27h0.3C23.3,15.01,23.24,14.94,23.19,14.9z"/></g><g><path fill="#FFFFFF" d="M2.23,41.54v-0.15h0.3v-0.34h0.22v0.34h0.26v0.15H2.75v0.44c0.02-0.01,0.06-0.02,0.11-0.03c0.07-0.02,0.13-0.04,0.18-0.05v0.14c-0.11,0.05-0.21,0.09-0.29,0.11v0.63c0.01,0.15-0.07,0.22-0.23,0.21H2.31v-0.15h0.13c0.07,0,0.1-0.03,0.09-0.09v-0.54c-0.02,0.01-0.06,0.01-0.1,0.02c-0.03,0.01-0.1,0.02-0.22,0.04v-0.19c0.13-0.02,0.23-0.04,0.33-0.05v-0.49H2.23z M3.08,41.33v-0.15h1.13v0.15H3.83v1.38c0,0.18-0.09,0.27-0.27,0.27H3.3v-0.16h0.17c0.09,0.01,0.13-0.03,0.13-0.11v-1.38H3.08z"/><path fill="#FFFFFF" d="M4.53,41.32v-0.16h1.81v0.16H5.99v0.6h0.42v0.16H5.99V43H5.75v-0.93H5.14c0.01,0.43-0.2,0.74-0.64,0.95v-0.16c0.27-0.17,0.41-0.43,0.4-0.79H4.42v-0.16h0.47v-0.6H4.53z M5.14,41.32v0.6h0.61v-0.6H5.14z"/><path fill="#FFFFFF" d="M8.57,43c-0.44-0.07-0.76-0.17-0.99-0.28c-0.23,0.11-0.54,0.21-0.94,0.29v-0.15c0.34-0.08,0.59-0.16,0.76-0.26c-0.18-0.13-0.36-0.31-0.52-0.56h0.28c0.13,0.19,0.27,0.34,0.42,0.45c0.18-0.11,0.34-0.3,0.49-0.55h-1.3v-0.15h0.7v-0.33H6.64v-0.16h0.85v-0.27h0.24v0.27h0.85v0.16H7.73v0.33h0.63v0.15C8.19,42.23,8,42.44,7.78,42.6c0.2,0.11,0.47,0.2,0.8,0.25L8.57,43L8.57,43z"/><path fill="#FFFFFF" d="M9.06,43.01v-1.27c-0.1,0.06-0.18,0.1-0.26,0.12v-0.13c0.22-0.14,0.36-0.38,0.42-0.7h0.24c-0.05,0.22-0.11,0.38-0.18,0.47V43H9.06V43.01z M9.43,41.56v-0.16h0.87v-0.35h0.22v0.35h0.27v0.16h-0.27v1.15c0.01,0.18-0.09,0.27-0.28,0.27H9.99v-0.16h0.17c0.1,0.01,0.14-0.04,0.14-0.13v-1.13H9.43z M9.77,42.33C9.75,42.17,9.69,42,9.61,41.79h0.2c0.09,0.16,0.15,0.34,0.18,0.54H9.77z"/><path fill="#FFFFFF" d="M11.16,41.83v-0.15h1.7v0.15h-0.73v0.34h0.68v0.15h-0.68v0.46H13v0.13h-1.98v-0.13h0.87v-0.46h-0.68v-0.15h0.68v-0.34H11.16z M11.07,41.57v-0.35h0.81v-0.18h0.26v0.18h0.81v0.35h-0.23v-0.2h-1.41v0.21L11.07,41.57L11.07,41.57z M12.48,42.74c-0.01-0.07-0.03-0.18-0.08-0.32h0.2c0.04,0.09,0.07,0.19,0.1,0.32H12.48z"/><path fill="#FFFFFF" d="M14.31,41.78V41.5c0-0.25,0.12-0.42,0.35-0.52v0.11c-0.15,0.09-0.22,0.22-0.21,0.38h0.16v0.31C14.61,41.78,14.31,41.78,14.31,41.78z M14.79,41.78V41.5c0-0.25,0.12-0.42,0.35-0.52v0.11c-0.15,0.09-0.22,0.22-0.21,0.38h0.16v0.31C15.09,41.78,14.79,41.78,14.79,41.78z"/><path fill="#FFFFFF" d="M15.42,41.5v-0.15h0.27v-0.3h0.21v0.3h0.24v0.15H15.9v0.47c0.04-0.01,0.1-0.03,0.18-0.05c0.03-0.01,0.05-0.01,0.06-0.02v0.15c-0.08,0.03-0.16,0.07-0.24,0.09v0.62c0,0.15-0.08,0.23-0.24,0.23h-0.19v-0.16h0.12c0.06,0,0.09-0.03,0.09-0.09v-0.55c-0.09,0.02-0.18,0.03-0.28,0.05v-0.19c0.1-0.01,0.2-0.03,0.28-0.04v-0.52h-0.26V41.5z M16.26,42.1v-0.15h0.81v-0.59h-0.85v-0.16h1.08v1.42c0,0.21-0.1,0.32-0.32,0.31h-0.83v-0.14h0.76c0.11,0.01,0.16-0.05,0.15-0.16V42.1L16.26,42.1L16.26,42.1z"/><path fill="#FFFFFF" d="M17.6,42v-0.16h2.03V42H17.6z"/><path fill="#FFFFFF" d="M19.82,41.5v-0.15h0.27v-0.3h0.21v0.3h0.24v0.15H20.3v0.47c0.04-0.01,0.1-0.03,0.18-0.05c0.03-0.01,0.05-0.01,0.06-0.02v0.15c-0.08,0.03-0.16,0.07-0.24,0.09v0.62c0,0.15-0.08,0.23-0.24,0.23h-0.19v-0.16h0.12c0.06,0,0.09-0.03,0.09-0.09v-0.55c-0.09,0.02-0.18,0.03-0.28,0.05v-0.19c0.1-0.01,0.2-0.03,0.28-0.04v-0.52h-0.26V41.5z M20.66,42.1v-0.15h0.81v-0.59h-0.85v-0.16h1.08v1.42c0,0.21-0.1,0.32-0.32,0.31h-0.83v-0.14h0.76c0.11,0.01,0.16-0.05,0.15-0.16V42.1L20.66,42.1L20.66,42.1z"/><path fill="#FFFFFF" d="M22.04,41.78v-0.11c0.15-0.09,0.22-0.22,0.21-0.39h-0.17v-0.29h0.3v0.26C22.38,41.49,22.27,41.67,22.04,41.78z M22.51,41.78v-0.11c0.15-0.1,0.22-0.23,0.21-0.39h-0.17v-0.29h0.3v0.26C22.86,41.49,22.75,41.67,22.51,41.78z"/><path fill="#FFFFFF" d="M24.33,42.99v-1.72h0.58c0.03-0.06,0.05-0.13,0.07-0.23h0.26c-0.02,0.09-0.04,0.17-0.07,0.23h0.91v1.43c0.01,0.2-0.09,0.29-0.3,0.28H25.6v-0.16h0.12c0.1,0.01,0.14-0.04,0.14-0.13v-1.26h-1.31v1.56H24.33z M24.79,42.57v-0.84h0.84v0.58c0,0.18-0.09,0.27-0.28,0.27h-0.56V42.57z M25,42.42h0.29c0.09,0.01,0.13-0.04,0.13-0.14v-0.4H25V42.42z"/><path fill="#FFFFFF" d="M26.46,41.29v-0.15h0.5c0.11,0,0.24-0.02,0.39-0.06v0.16c-0.13,0.03-0.24,0.04-0.31,0.04v0.31h0.46c-0.01-0.18-0.02-0.37-0.02-0.58h0.23c0,0.23,0,0.42,0,0.58h0.71v0.15h-0.7c0.01,0.21,0.03,0.4,0.06,0.57c0.14-0.14,0.25-0.3,0.33-0.46h0.22c-0.14,0.29-0.31,0.51-0.51,0.66c0.07,0.21,0.16,0.32,0.27,0.32c0.09,0.01,0.14-0.05,0.14-0.16h0.16c0,0.22-0.09,0.32-0.28,0.32c-0.2,0.01-0.35-0.11-0.45-0.35c-0.1,0.07-0.27,0.15-0.5,0.23v-0.13c0.17-0.09,0.32-0.17,0.45-0.27c-0.02-0.04-0.03-0.09-0.03-0.15c-0.03-0.15-0.05-0.34-0.07-0.57h-0.47v0.37c0.11-0.02,0.22-0.04,0.34-0.08v0.15c-0.12,0.04-0.23,0.07-0.34,0.1v0.45c0,0.16-0.09,0.23-0.27,0.23h-0.2v-0.15h0.12c0.08,0,0.12-0.04,0.12-0.11v-0.38c-0.09,0.02-0.21,0.03-0.39,0.04v-0.19c0.15-0.01,0.28-0.02,0.39-0.03v-0.41h-0.4v-0.15h0.4v-0.31h-0.35V41.29z M28.02,41.5c-0.02-0.12-0.06-0.25-0.12-0.39h0.19c0.06,0.1,0.11,0.23,0.15,0.39H28.02z"/><path fill="#FFFFFF" d="M28.86,43.01v-1.27c-0.1,0.06-0.18,0.1-0.26,0.12v-0.13c0.22-0.14,0.36-0.38,0.42-0.7h0.24c-0.05,0.22-0.11,0.38-0.18,0.47V43h-0.22V43.01z M29.23,41.56v-0.16h0.87v-0.35h0.22v0.35h0.27v0.16h-0.27v1.15c0.01,0.18-0.09,0.27-0.28,0.27h-0.26v-0.16h0.17c0.1,0.01,0.14-0.04,0.14-0.13v-1.13H29.23z M29.57,42.33c-0.02-0.16-0.08-0.33-0.16-0.54h0.2c0.09,0.16,0.15,0.34,0.18,0.54H29.57z"/><path fill="#FFFFFF" d="M30.79,42.89v-0.11c0.1-0.09,0.16-0.21,0.16-0.35h0.18C31.11,42.65,30.99,42.82,30.79,42.89z M30.81,41.32v-0.14h0.42v-0.15h0.2v0.15h0.41v0.14h-0.41v0.21h0.33v0.14h-0.88v-0.14h0.35v-0.21H30.81z M30.82,42.32v-0.14h1.03v0.14h-0.41v0.42c0.01,0.17-0.07,0.25-0.24,0.24h-0.14v-0.14h0.07c0.08,0.01,0.12-0.03,0.11-0.1v-0.42C31.24,42.32,30.82,42.32,30.82,42.32z M30.91,41.99v-0.14h0.84v0.14H30.91z M31.78,43.03v-0.18l0.03-0.03c-0.17-0.06-0.25-0.19-0.26-0.39h0.17c0,0.14,0.04,0.23,0.12,0.29v0.07c0.23-0.26,0.35-0.6,0.33-1.02v-0.15h0.21v0.15c-0.02,0.42,0.12,0.79,0.4,1.09v0.17c-0.26-0.21-0.43-0.43-0.51-0.66C32.22,42.61,32.03,42.83,31.78,43.03z M31.83,41.75V41.6c0.13-0.12,0.2-0.31,0.21-0.56h0.21c-0.01,0.09-0.03,0.16-0.04,0.23h0.57v0.43h-0.19V41.4h-0.43C32.1,41.53,31.99,41.64,31.83,41.75z"/></g></svg></mask><filter id="logo_filter" x="-20%" y="-20%" width="140%" height="140%" filterUnits="objectBoundingBox" primitiveUnits="userSpaceOnUse" color-interpolation-filters="linearRGB"><feDropShadow stdDeviation="2 2" in="SourceGraphic" dx="0" dy="1" flood-color="#000000" flood-opacity="0.5" x="-20%" y="-20%" width="140%" height="140%" result="dropShadow"/></filter></defs><use xlink:href="#SvgjsSvg1383"/><g><svg width="225" height="225" viewBox="0 0 330 330" x="82" y="204" style="overflow: visible;"><defs><mask><g id="SvgjsG1377"><path shape-rendering="crispEdges" d="M80,0h10v10h-10v-10ZM90,0h10v10h-10v-10ZM120,0h10v10h-10v-10ZM140,0h10v10h-10v-10ZM180,0h10v10h-10v-10ZM190,0h10v10h-10v-10ZM200,0h10v10h-10v-10ZM210,0h10v10h-10v-10ZM220,0h10v10h-10v-10ZM230,0h10v10h-10v-10ZM100,10h10v10h-10v-10ZM120,10h10v10h-10v-10ZM130,10h10v10h-10v-10ZM140,10h10v10h-10v-10ZM150,10h10v10h-10v-10ZM170,10h10v10h-10v-10ZM180,10h10v10h-10v-10ZM200,10h10v10h-10v-10ZM210,10h10v10h-10v-10ZM230,10h10v10h-10v-10ZM80,20h10v10h-10v-10ZM100,20h10v10h-10v-10ZM150,20h10v10h-10v-10ZM170,20h10v10h-10v-10ZM180,20h10v10h-10v-10ZM200,20h10v10h-10v-10ZM230,20h10v10h-10v-10ZM80,30h10v10h-10v-10ZM90,30h10v10h-10v-10ZM150,30h10v10h-10v-10ZM170,30h10v10h-10v-10ZM200,30h10v10h-10v-10ZM220,30h10v10h-10v-10ZM90,40h10v10h-10v-10ZM110,40h10v10h-10v-10ZM120,40h10v10h-10v-10ZM170,40h10v10h-10v-10ZM180,40h10v10h-10v-10ZM200,40h10v10h-10v-10ZM210,40h10v10h-10v-10ZM230,40h10v10h-10v-10ZM80,50h10v10h-10v-10ZM100,50h10v10h-10v-10ZM110,50h10v10h-10v-10ZM150,50h10v10h-10v-10ZM160,50h10v10h-10v-10ZM170,50h10v10h-10v-10ZM180,50h10v10h-10v-10ZM190,50h10v10h-10v-10ZM200,50h10v10h-10v-10ZM210,50h10v10h-10v-10ZM240,50h10v10h-10v-10ZM80,60h10v10h-10v-10ZM100,60h10v10h-10v-10ZM120,60h10v10h-10v-10ZM140,60h10v10h-10v-10ZM160,60h10v10h-10v-10ZM180,60h10v10h-10v-10ZM200,60h10v10h-10v-10ZM220,60h10v10h-10v-10ZM240,60h10v10h-10v-10ZM80,70h10v10h-10v-10ZM100,70h10v10h-10v-10ZM110,70h10v10h-10v-10ZM130,70h10v10h-10v-10ZM150,70h10v10h-10v-10ZM170,70h10v10h-10v-10ZM180,70h10v10h-10v-10ZM210,70h10v10h-10v-10ZM240,70h10v10h-10v-10ZM10,80h10v10h-10v-10ZM30,80h10v10h-10v-10ZM50,80h10v10h-10v-10ZM60,80h10v10h-10v-10ZM70,80h10v10h-10v-10ZM80,80h10v10h-10v-10ZM90,80h10v10h-10v-10ZM110,80h10v10h-10v-10ZM120,80h10v10h-10v-10ZM130,80h10v10h-10v-10ZM150,80h10v10h-10v-10ZM160,80h10v10h-10v-10ZM190,80h10v10h-10v-10ZM210,80h10v10h-10v-10ZM240,80h10v10h-10v-10ZM250,80h10v10h-10v-10ZM260,80h10v10h-10v-10ZM270,80h10v10h-10v-10ZM290,80h10v10h-10v-10ZM300,80h10v10h-10v-10ZM320,80h10v10h-10v-10ZM10,90h10v10h-10v-10ZM20,90h10v10h-10v-10ZM50,90h10v10h-10v-10ZM70,90h10v10h-10v-10ZM80,90h10v10h-10v-10ZM110,90h10v10h-10v-10ZM120,90h10v10h-10v-10ZM150,90h10v10h-10v-10ZM200,90h10v10h-10v-10ZM210,90h10v10h-10v-10ZM220,90h10v10h-10v-10ZM240,90h10v10h-10v-10ZM250,90h10v10h-10v-10ZM260,90h10v10h-10v-10ZM270,90h10v10h-10v-10ZM320,90h10v10h-10v-10ZM10,100h10v10h-10v-10ZM30,100h10v10h-10v-10ZM40,100h10v10h-10v-10ZM50,100h10v10h-10v-10ZM60,100h10v10h-10v-10ZM70,100h10v10h-10v-10ZM100,100h10v10h-10v-10ZM130,100h10v10h-10v-10ZM150,100h10v10h-10v-10ZM170,100h10v10h-10v-10ZM190,100h10v10h-10v-10ZM250,100h10v10h-10v-10ZM260,100h10v10h-10v-10ZM270,100h10v10h-10v-10ZM280,100h10v10h-10v-10ZM300,100h10v10h-10v-10ZM310,100h10v10h-10v-10ZM320,100h10v10h-10v-10ZM10,110h10v10h-10v-10ZM40,110h10v10h-10v-10ZM50,110h10v10h-10v-10ZM70,110h10v10h-10v-10ZM80,110h10v10h-10v-10ZM90,110h10v10h-10v-10ZM100,110h10v10h-10v-10ZM120,110h10v10h-10v-10ZM130,110h10v10h-10v-10ZM140,110h10v10h-10v-10ZM160,110h10v10h-10v-10ZM170,110h10v10h-10v-10ZM210,110h10v10h-10v-10ZM220,110h10v10h-10v-10ZM280,110h10v10h-10v-10ZM290,110h10v10h-10v-10ZM310,110h10v10h-10v-10ZM320,110h10v10h-10v-10ZM0,120h10v10h-10v-10ZM10,120h10v10h-10v-10ZM40,120h10v10h-10v-10ZM60,120h10v10h-10v-10ZM80,120h10v10h-10v-10ZM90,120h10v10h-10v-10ZM100,120h10v10h-10v-10ZM110,120h10v10h-10v-10ZM140,120h10v10h-10v-10ZM160,120h10v10h-10v-10ZM190,120h10v10h-10v-10ZM210,120h10v10h-10v-10ZM240,120h10v10h-10v-10ZM250,120h10v10h-10v-10ZM260,120h10v10h-10v-10ZM270,120h10v10h-10v-10ZM290,120h10v10h-10v-10ZM30,130h10v10h-10v-10ZM40,130h10v10h-10v-10ZM70,130h10v10h-10v-10ZM110,130h10v10h-10v-10ZM130,130h10v10h-10v-10ZM160,130h10v10h-10v-10ZM170,130h10v10h-10v-10ZM190,130h10v10h-10v-10ZM210,130h10v10h-10v-10ZM220,130h10v10h-10v-10ZM240,130h10v10h-10v-10ZM260,130h10v10h-10v-10ZM280,130h10v10h-10v-10ZM290,130h10v10h-10v-10ZM310,130h10v10h-10v-10ZM320,130h10v10h-10v-10ZM0,140h10v10h-10v-10ZM10,140h10v10h-10v-10ZM60,140h10v10h-10v-10ZM70,140h10v10h-10v-10ZM90,140h10v10h-10v-10ZM110,140h10v10h-10v-10ZM160,140h10v10h-10v-10ZM170,140h10v10h-10v-10ZM220,140h10v10h-10v-10ZM230,140h10v10h-10v-10ZM250,140h10v10h-10v-10ZM260,140h10v10h-10v-10ZM270,140h10v10h-10v-10ZM280,140h10v10h-10v-10ZM300,140h10v10h-10v-10ZM310,140h10v10h-10v-10ZM10,150h10v10h-10v-10ZM40,150h10v10h-10v-10ZM70,150h10v10h-10v-10ZM80,150h10v10h-10v-10ZM110,150h10v10h-10v-10ZM120,150h10v10h-10v-10ZM170,150h10v10h-10v-10ZM210,150h10v10h-10v-10ZM260,150h10v10h-10v-10ZM290,150h10v10h-10v-10ZM310,150h10v10h-10v-10ZM0,160h10v10h-10v-10ZM30,160h10v10h-10v-10ZM40,160h10v10h-10v-10ZM50,160h10v10h-10v-10ZM60,160h10v10h-10v-10ZM70,160h10v10h-10v-10ZM80,160h10v10h-10v-10ZM120,160h10v10h-10v-10ZM140,160h10v10h-10v-10ZM150,160h10v10h-10v-10ZM160,160h10v10h-10v-10ZM170,160h10v10h-10v-10ZM190,160h10v10h-10v-10ZM200,160h10v10h-10v-10ZM210,160h10v10h-10v-10ZM220,160h10v10h-10v-10ZM240,160h10v10h-10v-10ZM260,160h10v10h-10v-10ZM280,160h10v10h-10v-10ZM290,160h10v10h-10v-10ZM310,160h10v10h-10v-10ZM10,170h10v10h-10v-10ZM40,170h10v10h-10v-10ZM50,170h10v10h-10v-10ZM90,170h10v10h-10v-10ZM210,170h10v10h-10v-10ZM230,170h10v10h-10v-10ZM240,170h10v10h-10v-10ZM270,170h10v10h-10v-10ZM290,170h10v10h-10v-10ZM0,180h10v10h-10v-10ZM20,180h10v10h-10v-10ZM60,180h10v10h-10v-10ZM80,180h10v10h-10v-10ZM110,180h10v10h-10v-10ZM120,180h10v10h-10v-10ZM130,180h10v10h-10v-10ZM140,180h10v10h-10v-10ZM150,180h10v10h-10v-10ZM160,180h10v10h-10v-10ZM210,180h10v10h-10v-10ZM220,180h10v10h-10v-10ZM240,180h10v10h-10v-10ZM300,180h10v10h-10v-10ZM310,180h10v10h-10v-10ZM320,180h10v10h-10v-10ZM0,190h10v10h-10v-10ZM10,190h10v10h-10v-10ZM20,190h10v10h-10v-10ZM70,190h10v10h-10v-10ZM80,190h10v10h-10v-10ZM100,190h10v10h-10v-10ZM140,190h10v10h-10v-10ZM150,190h10v10h-10v-10ZM160,190h10v10h-10v-10ZM170,190h10v10h-10v-10ZM180,190h10v10h-10v-10ZM190,190h10v10h-10v-10ZM210,190h10v10h-10v-10ZM220,190h10v10h-10v-10ZM240,190h10v10h-10v-10ZM250,190h10v10h-10v-10ZM260,190h10v10h-10v-10ZM270,190h10v10h-10v-10ZM310,190h10v10h-10v-10ZM320,190h10v10h-10v-10ZM20,200h10v10h-10v-10ZM30,200h10v10h-10v-10ZM50,200h10v10h-10v-10ZM60,200h10v10h-10v-10ZM70,200h10v10h-10v-10ZM80,200h10v10h-10v-10ZM90,200h10v10h-10v-10ZM100,200h10v10h-10v-10ZM130,200h10v10h-10v-10ZM140,200h10v10h-10v-10ZM150,200h10v10h-10v-10ZM160,200h10v10h-10v-10ZM180,200h10v10h-10v-10ZM210,200h10v10h-10v-10ZM240,200h10v10h-10v-10ZM250,200h10v10h-10v-10ZM270,200h10v10h-10v-10ZM320,200h10v10h-10v-10ZM40,210h10v10h-10v-10ZM90,210h10v10h-10v-10ZM100,210h10v10h-10v-10ZM120,210h10v10h-10v-10ZM140,210h10v10h-10v-10ZM150,210h10v10h-10v-10ZM170,210h10v10h-10v-10ZM180,210h10v10h-10v-10ZM200,210h10v10h-10v-10ZM210,210h10v10h-10v-10ZM220,210h10v10h-10v-10ZM240,210h10v10h-10v-10ZM250,210h10v10h-10v-10ZM260,210h10v10h-10v-10ZM270,210h10v10h-10v-10ZM290,210h10v10h-10v-10ZM310,210h10v10h-10v-10ZM320,210h10v10h-10v-10ZM0,220h10v10h-10v-10ZM10,220h10v10h-10v-10ZM20,220h10v10h-10v-10ZM30,220h10v10h-10v-10ZM50,220h10v10h-10v-10ZM60,220h10v10h-10v-10ZM70,220h10v10h-10v-10ZM100,220h10v10h-10v-10ZM130,220h10v10h-10v-10ZM170,220h10v10h-10v-10ZM190,220h10v10h-10v-10ZM200,220h10v10h-10v-10ZM240,220h10v10h-10v-10ZM250,220h10v10h-10v-10ZM260,220h10v10h-10v-10ZM270,220h10v10h-10v-10ZM300,220h10v10h-10v-10ZM320,220h10v10h-10v-10ZM10,230h10v10h-10v-10ZM20,230h10v10h-10v-10ZM100,230h10v10h-10v-10ZM110,230h10v10h-10v-10ZM120,230h10v10h-10v-10ZM150,230h10v10h-10v-10ZM170,230h10v10h-10v-10ZM180,230h10v10h-10v-10ZM190,230h10v10h-10v-10ZM200,230h10v10h-10v-10ZM210,230h10v10h-10v-10ZM220,230h10v10h-10v-10ZM260,230h10v10h-10v-10ZM270,230h10v10h-10v-10ZM280,230h10v10h-10v-10ZM320,230h10v10h-10v-10ZM0,240h10v10h-10v-10ZM20,240h10v10h-10v-10ZM30,240h10v10h-10v-10ZM40,240h10v10h-10v-10ZM60,240h10v10h-10v-10ZM90,240h10v10h-10v-10ZM100,240h10v10h-10v-10ZM120,240h10v10h-10v-10ZM130,240h10v10h-10v-10ZM160,240h10v10h-10v-10ZM170,240h10v10h-10v-10ZM180,240h10v10h-10v-10ZM190,240h10v10h-10v-10ZM200,240h10v10h-10v-10ZM210,240h10v10h-10v-10ZM240,240h10v10h-10v-10ZM250,240h10v10h-10v-10ZM260,240h10v10h-10v-10ZM270,240h10v10h-10v-10ZM280,240h10v10h-10v-10ZM290,240h10v10h-10v-10ZM310,240h10v10h-10v-10ZM80,250h10v10h-10v-10ZM90,250h10v10h-10v-10ZM130,250h10v10h-10v-10ZM140,250h10v10h-10v-10ZM160,250h10v10h-10v-10ZM170,250h10v10h-10v-10ZM180,250h10v10h-10v-10ZM190,250h10v10h-10v-10ZM200,250h10v10h-10v-10ZM230,250h10v10h-10v-10ZM240,250h10v10h-10v-10ZM280,250h10v10h-10v-10ZM290,250h10v10h-10v-10ZM320,250h10v10h-10v-10ZM80,260h10v10h-10v-10ZM90,260h10v10h-10v-10ZM110,260h10v10h-10v-10ZM130,260h10v10h-10v-10ZM140,260h10v10h-10v-10ZM160,260h10v10h-10v-10ZM180,260h10v10h-10v-10ZM220,260h10v10h-10v-10ZM240,260h10v10h-10v-10ZM260,260h10v10h-10v-10ZM280,260h10v10h-10v-10ZM290,260h10v10h-10v-10ZM300,260h10v10h-10v-10ZM310,260h10v10h-10v-10ZM80,270h10v10h-10v-10ZM110,270h10v10h-10v-10ZM170,270h10v10h-10v-10ZM180,270h10v10h-10v-10ZM200,270h10v10h-10v-10ZM210,270h10v10h-10v-10ZM220,270h10v10h-10v-10ZM230,270h10v10h-10v-10ZM240,270h10v10h-10v-10ZM280,270h10v10h-10v-10ZM310,270h10v10h-10v-10ZM320,270h10v10h-10v-10ZM90,280h10v10h-10v-10ZM110,280h10v10h-10v-10ZM130,280h10v10h-10v-10ZM150,280h10v10h-10v-10ZM170,280h10v10h-10v-10ZM200,280h10v10h-10v-10ZM210,280h10v10h-10v-10ZM220,280h10v10h-10v-10ZM240,280h10v10h-10v-10ZM250,280h10v10h-10v-10ZM260,280h10v10h-10v-10ZM270,280h10v10h-10v-10ZM280,280h10v10h-10v-10ZM290,280h10v10h-10v-10ZM320,280h10v10h-10v-10ZM80,290h10v10h-10v-10ZM90,290h10v10h-10v-10ZM120,290h10v10h-10v-10ZM140,290h10v10h-10v-10ZM150,290h10v10h-10v-10ZM160,290h10v10h-10v-10ZM170,290h10v10h-10v-10ZM240,290h10v10h-10v-10ZM260,290h10v10h-10v-10ZM280,290h10v10h-10v-10ZM290,290h10v10h-10v-10ZM310,290h10v10h-10v-10ZM110,300h10v10h-10v-10ZM120,300h10v10h-10v-10ZM130,300h10v10h-10v-10ZM140,300h10v10h-10v-10ZM180,300h10v10h-10v-10ZM200,300h10v10h-10v-10ZM220,300h10v10h-10v-10ZM240,300h10v10h-10v-10ZM250,300h10v10h-10v-10ZM280,300h10v10h-10v-10ZM320,300h10v10h-10v-10ZM80,310h10v10h-10v-10ZM90,310h10v10h-10v-10ZM110,310h10v10h-10v-10ZM130,310h10v10h-10v-10ZM140,310h10v10h-10v-10ZM150,310h10v10h-10v-10ZM160,310h10v10h-10v-10ZM170,310h10v10h-10v-10ZM180,310h10v10h-10v-10ZM200,310h10v10h-10v-10ZM210,310h10v10h-10v-10ZM240,310h10v10h-10v-10ZM250,310h10v10h-10v-10ZM290,310h10v10h-10v-10ZM90,320h10v10h-10v-10ZM100,320h10v10h-10v-10ZM130,320h10v10h-10v-10ZM160,320h10v10h-10v-10ZM170,320h10v10h-10v-10ZM180,320h10v10h-10v-10ZM210,320h10v10h-10v-10ZM220,320h10v10h-10v-10ZM240,320h10v10h-10v-10ZM280,320h10v10h-10v-10ZM310,320h10v10h-10v-10Z"/></g></mask><svg width="70" height="70" viewBox="0 0 70 70" id="SvgjsSvg1376"><path d="M70,70H0V0h70V70z M10,60h50V10H10V60z M20,20h30v30H20V20z" shape-rendering="crispEdges"/></svg><mask><g id="SvgjsG1378"><use xlink:href="#SvgjsSvg1376"/><use xlink:href="#SvgjsSvg1376" transform="matrix(-1,0,0,1,330,0)"/><use xlink:href="#SvgjsSvg1376" transform="matrix(1,0,0,-1,0,330)"/></g></mask><linearGradient x1="0" y1="0" x2="1" y2="1" id="SvgjsLinearGradient1365"><stop stop-color="#43b0dc" offset="0"/><stop stop-color="#254ac5" offset="1"/></linearGradient><filter id="white_filter" x="-20%" y="-20%" width="140%" height="140%" filterUnits="objectBoundingBox" primitiveUnits="userSpaceOnUse" color-interpolation-filters="linearRGB"><feColorMatrix type="matrix" values="0 0 0 0 255 0 0 0 0 255 0 0 0 0 255 0 0 0 1 0" x="-20%" y="-20%" width="140%" height="140%" in="SourceGraphic" result="colormatrix"/></filter></defs><use xlink:href="#SvgjsG1377"/><use xlink:href="#SvgjsG1378"/></svg></g><svg width="57" height="57" viewBox="0 0 58 58" x="166" y="288" filter="url(#logo_filter)"><defs><svg x="0px" y="0px" width="50" height="50" viewBox="0 0 50 50" id="SvgjsSvg1381"><path fill="#FFFFFF" d="M41.9,0H8.1C3.63,0,0,3.64,0,8.13v33.75C0,46.36,3.63,50,8.1,50h33.8c4.48,0,8.1-3.64,8.1-8.13V8.13C50,3.64,46.37,0,41.9,0z"/><path fill="#1677FF" d="M47,39.68v0.27c0,3.88-3.17,7.05-7.04,7.05H10.04C6.17,47,3,43.83,3,39.95v-29.9C3,6.17,6.17,3,10.04,3h29.92C43.83,3,47,6.17,47,10.05V32.8V39.68L47,39.68z M14.88,36.86c-6.86,0-8.89-5.38-5.46-8.38c1.14-0.97,3.17-1.5,4.31-1.58c4.05-0.44,7.83,1.14,12.32,3.35C22.8,34.3,18.84,36.86,14.88,36.86L14.88,36.86z M39.26,30.6c-1.76-0.61-4.14-1.5-6.78-2.47c1.58-2.73,2.82-5.91,3.7-9.26h-8.71v-3.09h10.65v-1.76H27.46v-5.2h-4.31c-0.79,0-0.79,0.79-0.79,0.79v4.5H11.62v1.76h10.74v3h-8.89v1.76h17.25c-0.62,2.21-1.5,4.23-2.46,6.08c-5.54-1.85-11.53-3.35-15.31-2.38c-2.38,0.62-3.96,1.68-4.84,2.73c-4.14,5.03-1.14,12.7,7.57,12.7c5.19,0,10.21-2.91,14.08-7.67C35.56,34.92,47,39.68,47,39.68v-6.79C47,32.89,45.59,32.71,39.26,30.6z"/></svg><clipPath id="SvgjsClipPath1382"><rect rx="4" ry="4" stroke-width="0.5" stroke="#bbbbbb" fill="none" x="0" y="0" width="50" height="50"/></clipPath></defs><rect rx="6" ry="6" fill="#FFFFFF" x="0" y="0" width="58" height="58"/><use xlink:href="#SvgjsSvg1381" clip-path="url(#SvgjsClipPath1382)" transform="matrix(1,0,0,1,4,4)"/><rect rx="4" ry="4" stroke-width="0.5" stroke="#bbbbbb" fill="none" x="4" y="4" width="50" height="50"/></svg></svg><svg version="1.1" xmlns:xlink="http://www.w3.org/1999/xlink" xmlns:svgjs="http://svgjs.dev/svgjs" width="389" height="500" viewBox="0 0 389 500" x="389"><rect width="389" height="500" x="0" y="0" fill="#ffffff"/><defs><mask><svg width="389" height="500" viewBox="0 0 35 45" id="SvgjsSvg1296" x="0" y="0"><rect fill="#FFFFFF" width="35" height="45"/><rect y="11" fill="#27A13A" width="35" height="34"/><g><path fill="#2BA23A" d="M9.21,6.9C8.75,7.17,8.67,6.75,8.67,6.75L8.1,5.44C7.89,4.8,8.29,5.16,8.29,5.16s0.35,0.26,0.62,0.43c0.27,0.17,0.57,0.04,0.57,0.04l3.73-1.71C12.52,3.05,11.4,2.5,10.1,2.5c-2.09,0-3.8,1.48-3.8,3.33c0,1.07,0.57,1.98,1.44,2.6l-0.16,0.9c0,0-0.08,0.26,0.19,0.14C7.95,9.38,8.42,9.09,8.7,8.9c0.44,0.15,0.93,0.24,1.4,0.24c2.09,0,3.8-1.48,3.8-3.33c0-0.53-0.14-1.05-0.4-1.47C12.31,5.05,9.55,6.7,9.21,6.9L9.21,6.9z"/><path fill="#111111" d="M14.85,4.29v-0.2c0.26-0.18,0.44-0.44,0.52-0.77h0.3C15.56,3.82,15.29,4.14,14.85,4.29z M14.85,5.17V4.95c0.26-0.18,0.44-0.43,0.52-0.74h0.3c-0.06,0.2-0.13,0.36-0.21,0.48v1.78h-0.3V5C15.06,5.06,14.96,5.11,14.85,5.17z M15.59,6.48V6.25c0.16-0.1,0.24-0.28,0.23-0.55V5.06h0.92v0.86c0.05-0.03,0.11-0.07,0.19-0.14c0.04-0.03,0.06-0.05,0.08-0.05v0.23c-0.15,0.15-0.33,0.28-0.55,0.41V5.29h-0.37v0.37C16.11,6.03,15.94,6.3,15.59,6.48z M15.7,4.83V4.62h1.19v0.21H15.7z M15.71,4.39V3.5h0.23v0.68h0.23V3.35h0.25v0.83h0.1c0.11,0.01,0.16-0.05,0.15-0.16V3.5h0.22v0.56c0.01,0.23-0.1,0.34-0.34,0.33H15.71z M18.02,6.45c-0.22-0.18-0.41-0.38-0.56-0.59c-0.1,0.16-0.29,0.36-0.56,0.59V6.18c0.17-0.17,0.31-0.36,0.42-0.55c-0.16-0.31-0.26-0.71-0.31-1.2L16.9,4.51V4.28c0.18-0.24,0.29-0.55,0.33-0.94h0.29c-0.01,0.16-0.04,0.29-0.08,0.4h0.64v0.23h-0.15c-0.01,0.74-0.12,1.29-0.33,1.67c0.11,0.2,0.25,0.39,0.42,0.56V6.45z M17.46,5.32c0.12-0.31,0.18-0.76,0.19-1.35h-0.29c-0.05,0.12-0.12,0.22-0.21,0.31h0.11C17.3,4.7,17.37,5.05,17.46,5.32z"/><path fill="#111111" d="M18.7,6.47V4.39c-0.1,0.06-0.22,0.13-0.36,0.21V4.36c0.33-0.25,0.53-0.59,0.6-1.04h0.36c-0.06,0.29-0.15,0.52-0.26,0.7v2.45C19.04,6.47,18.7,6.47,18.7,6.47z M19.29,3.84V3.61h0.93V3.34h0.38v0.27h0.93v0.23H19.29z M19.44,4.39V4.16h1.91v0.23H19.44z M19.44,4.94V4.72h1.91v0.22C21.35,4.94,19.44,4.94,19.44,4.94z M19.46,6.37V5.28h1.89v0.68c0.01,0.28-0.13,0.42-0.41,0.41H19.46z M19.8,6.14h1.02c0.14,0,0.2-0.05,0.19-0.16V5.51H19.8V6.14z"/><path fill="#111111" d="M24.98,6.44c-0.69-0.12-1.22-0.27-1.57-0.45c-0.37,0.17-0.86,0.33-1.49,0.46V6.22c0.54-0.12,0.94-0.25,1.22-0.41c-0.29-0.2-0.57-0.5-0.83-0.89h0.45c0.2,0.3,0.42,0.54,0.67,0.71c0.28-0.18,0.54-0.47,0.78-0.87h-2.06V4.51h1.12V3.99H21.9V3.73h1.35V3.31h0.38v0.42h1.35v0.26h-1.35v0.52h1v0.25c-0.26,0.46-0.57,0.81-0.93,1.05c0.32,0.18,0.74,0.31,1.27,0.4v0.23H24.98z"/><path fill="#111111" d="M25.76,6.47V4.44c-0.16,0.09-0.29,0.15-0.41,0.19v-0.2c0.36-0.23,0.58-0.6,0.67-1.11h0.38c-0.08,0.36-0.18,0.61-0.29,0.75v2.39L25.76,6.47L25.76,6.47z M26.34,4.16V3.9h1.38V3.34h0.36V3.9h0.42v0.26h-0.42v1.83c0.01,0.29-0.14,0.43-0.44,0.42h-0.41V6.17h0.27c0.16,0.01,0.23-0.06,0.22-0.21v-1.8H26.34z M26.88,5.39c-0.04-0.25-0.12-0.53-0.26-0.86h0.31c0.14,0.25,0.23,0.54,0.29,0.86H26.88z"/><path fill="#333333" d="M17.5,7.22l-0.48,1.61h-0.23l-0.35-1.18c-0.02-0.05-0.02-0.1-0.03-0.16l0,0c0,0.06-0.01,0.11-0.03,0.16l-0.35,1.18H15.8l-0.5-1.61h0.22l0.36,1.24c0.02,0.05,0.02,0.11,0.03,0.16h0.01c0-0.04,0.02-0.09,0.04-0.16l0.38-1.24h0.19l0.36,1.24c0.01,0.04,0.02,0.09,0.03,0.15l0,0c0-0.04,0.01-0.09,0.03-0.15l0.35-1.24C17.3,7.22,17.5,7.22,17.5,7.22z"/><path fill="#333333" d="M18.7,8.3h-0.86c0,0.13,0.04,0.23,0.11,0.3c0.07,0.07,0.17,0.1,0.29,0.1c0.14,0,0.26-0.04,0.38-0.13v0.17c-0.11,0.07-0.25,0.11-0.43,0.11c-0.17,0-0.31-0.05-0.41-0.16s-0.15-0.25-0.15-0.44c0-0.18,0.05-0.32,0.16-0.44c0.11-0.11,0.24-0.17,0.4-0.17s0.28,0.05,0.37,0.15s0.13,0.23,0.13,0.41v0.1H18.7z M18.5,8.15c0-0.11-0.03-0.19-0.08-0.25s-0.13-0.09-0.22-0.09s-0.17,0.03-0.23,0.09s-0.1,0.14-0.12,0.24h0.65V8.15z"/><path fill="#333333" d="M19.83,8.78c-0.09,0.05-0.21,0.08-0.33,0.08c-0.17,0-0.31-0.05-0.42-0.16s-0.16-0.24-0.16-0.41c0-0.19,0.06-0.34,0.17-0.46c0.12-0.12,0.27-0.17,0.46-0.17c0.11,0,0.2,0.02,0.28,0.06V7.9c-0.09-0.06-0.19-0.09-0.29-0.09c-0.13,0-0.23,0.04-0.31,0.13c-0.08,0.08-0.12,0.19-0.12,0.33c0,0.13,0.04,0.24,0.11,0.32c0.08,0.08,0.18,0.12,0.3,0.12c0.11,0,0.21-0.03,0.3-0.1v0.17H19.83z"/><path fill="#333333" d="M21.14,8.83h-0.2V8.17c0-0.24-0.09-0.36-0.28-0.36c-0.09,0-0.17,0.03-0.24,0.1s-0.1,0.16-0.1,0.27v0.65h-0.2v-1.7h0.2v0.74l0,0c0.09-0.15,0.23-0.22,0.4-0.22c0.27,0,0.41,0.16,0.41,0.47v0.71H21.14z"/><path fill="#333333" d="M22.38,8.83h-0.2V8.65l0,0c-0.08,0.14-0.21,0.21-0.38,0.21c-0.12,0-0.22-0.03-0.29-0.09c-0.07-0.06-0.1-0.14-0.1-0.24c0-0.21,0.13-0.34,0.4-0.38l0.37-0.05c0-0.2-0.08-0.29-0.25-0.29c-0.15,0-0.28,0.05-0.4,0.14V7.76c0.12-0.07,0.26-0.11,0.42-0.11c0.29,0,0.43,0.14,0.43,0.43V8.83z M22.19,8.25L21.9,8.29c-0.09,0.01-0.16,0.03-0.21,0.06s-0.07,0.08-0.07,0.16c0,0.06,0.02,0.1,0.06,0.14c0.04,0.04,0.1,0.05,0.17,0.05c0.1,0,0.18-0.03,0.24-0.1s0.09-0.15,0.09-0.24V8.25H22.19z"/><path fill="#333333" d="M23.32,8.82c-0.05,0.02-0.11,0.04-0.18,0.04c-0.21,0-0.32-0.11-0.32-0.34V7.84H22.6V7.68h0.21V7.4l0.2-0.06v0.34h0.31v0.16h-0.31v0.65c0,0.08,0.01,0.13,0.04,0.17c0.03,0.03,0.07,0.05,0.14,0.05c0.05,0,0.09-0.01,0.13-0.04V8.82z"/><path fill="#333333" d="M24.47,8.22v0.61h-0.2V7.22h0.47c0.18,0,0.33,0.04,0.43,0.13c0.1,0.08,0.15,0.2,0.15,0.35s-0.06,0.28-0.17,0.38c-0.11,0.1-0.26,0.15-0.45,0.15L24.47,8.22L24.47,8.22z M24.47,7.39v0.66h0.21c0.14,0,0.24-0.03,0.32-0.09c0.07-0.06,0.11-0.14,0.11-0.25c0-0.21-0.13-0.32-0.4-0.32H24.47z"/><path fill="#333333" d="M26.49,8.83h-0.2V8.65l0,0c-0.08,0.14-0.21,0.21-0.38,0.21c-0.12,0-0.22-0.03-0.29-0.09c-0.07-0.06-0.1-0.14-0.1-0.24c0-0.21,0.13-0.34,0.4-0.38l0.37-0.05c0-0.2-0.08-0.29-0.25-0.29c-0.15,0-0.28,0.05-0.4,0.14V7.76c0.12-0.07,0.26-0.11,0.42-0.11c0.29,0,0.43,0.14,0.43,0.43V8.83z M26.29,8.25L26,8.29c-0.09,0.01-0.16,0.03-0.21,0.06s-0.07,0.08-0.07,0.16c0,0.06,0.02,0.1,0.06,0.14c0.04,0.04,0.1,0.05,0.17,0.05c0.1,0,0.18-0.03,0.24-0.1s0.09-0.15,0.09-0.24V8.25H26.29z"/><path fill="#333333" d="M27.83,7.68l-0.56,1.33c-0.1,0.24-0.24,0.36-0.42,0.36c-0.05,0-0.09,0-0.13-0.01V9.2c0.04,0.01,0.08,0.02,0.12,0.02c0.1,0,0.17-0.06,0.22-0.17l0.1-0.22l-0.48-1.15h0.22l0.33,0.88c0,0.01,0.01,0.04,0.03,0.09h0.01c0-0.02,0.01-0.05,0.02-0.09l0.35-0.89h0.19V7.68z"/></g><path fill="#FFFFFF" d="M7.41,13.09h20.18c0.77,0,1.41,0.64,1.41,1.41l0,0c0,0.77-0.64,1.41-1.41,1.41H7.41C6.64,15.91,6,15.27,6,14.5l0,0C6.01,13.73,6.64,13.09,7.41,13.09z"/><path fill="#FFFFFF" d="M28.5,38.34c0,0.64-0.52,1.16-1.16,1.16H7.66c-0.64,0-1.16-0.52-1.16-1.16V18.66c0-0.64,0.52-1.16,1.16-1.16h19.68c0.64,0,1.16,0.52,1.16,1.16V38.34z"/><g><path fill="#27A13A" d="M10.52,14.12l0.19,0.3c0.04-0.13,0.06-0.26,0.06-0.4h-0.42v-0.23H11c0,0.35-0.05,0.64-0.14,0.88l0.18,0.3l-0.21,0.12c-0.03-0.05-0.06-0.11-0.09-0.17c-0.08,0.14-0.18,0.27-0.31,0.39c-0.04-0.09-0.08-0.18-0.12-0.25c0.12-0.12,0.22-0.25,0.29-0.38c-0.08-0.13-0.17-0.29-0.28-0.46L10.52,14.12z M11.38,14.21h0.23c0,0.09-0.01,0.18-0.02,0.27c0.1,0.34,0.27,0.56,0.49,0.65c-0.05,0.07-0.09,0.15-0.14,0.23c-0.19-0.11-0.34-0.29-0.43-0.54c-0.09,0.24-0.24,0.43-0.46,0.58c-0.04-0.06-0.11-0.13-0.2-0.21c0.18-0.1,0.32-0.23,0.4-0.39S11.38,14.44,11.38,14.21z M12.04,13.88v0.21l-0.08,0.33l-0.23-0.05l0.08-0.28h-0.48c-0.05,0.14-0.09,0.26-0.15,0.38c-0.04-0.03-0.11-0.06-0.21-0.12c0.11-0.23,0.19-0.47,0.25-0.72l0.23,0.04c-0.02,0.07-0.04,0.15-0.06,0.21H12.04z"/><path fill="#27A13A" d="M13.88,15.1c-0.04,0.1-0.07,0.18-0.09,0.24c-0.6,0-0.96,0-1.08-0.02s-0.22-0.07-0.3-0.16c-0.07,0.08-0.13,0.15-0.19,0.22l-0.1-0.27c0.06-0.06,0.12-0.11,0.17-0.16v-0.5h-0.16v-0.23h0.4v0.76c0.05,0.07,0.14,0.11,0.26,0.11c0.12,0.01,0.27,0.01,0.44,0.01C13.41,15.11,13.62,15.11,13.88,15.1z M12.36,13.64c0.1,0.12,0.18,0.23,0.24,0.32l-0.21,0.14c-0.07-0.11-0.14-0.22-0.23-0.33L12.36,13.64z M12.92,14.59c0.05-0.03,0.11-0.06,0.2-0.11c0,0.12,0,0.21,0.01,0.26c-0.19,0.09-0.32,0.16-0.38,0.21l-0.13-0.2c0.05-0.04,0.07-0.1,0.07-0.17v-0.81c0.15-0.03,0.27-0.07,0.36-0.11l0.11,0.2v-0.1h0.64v0.88c0,0.05-0.01,0.09-0.02,0.12s-0.03,0.06-0.06,0.08s-0.05,0.03-0.08,0.04c-0.03,0-0.1,0.01-0.2,0.01c-0.01-0.08-0.02-0.16-0.04-0.23c0.04,0,0.07,0.01,0.09,0.01c0.06,0,0.09-0.03,0.09-0.09V14H13.4v1.09h-0.23v-1.18c-0.08,0.03-0.16,0.05-0.24,0.07L12.92,14.59L12.92,14.59z"/><path fill="#27A13A" d="M14.22,13.65l0.23,0.06c-0.03,0.13-0.08,0.26-0.12,0.38v1.3h-0.22v-0.81c-0.04,0.08-0.08,0.15-0.13,0.22c-0.01-0.11-0.03-0.22-0.06-0.33C14.06,14.21,14.16,13.94,14.22,13.65z M14.5,14.86l0.15-0.12h-0.17v-0.59h0.43v-0.14h-0.48v-0.2h0.48v-0.17h0.23v0.17h0.5v0.2h-0.5v0.14h0.43v0.66h-0.22v-0.07h-0.21c-0.01,0.12-0.03,0.21-0.06,0.28c0.16,0.06,0.36,0.09,0.59,0.09c-0.05,0.11-0.1,0.19-0.13,0.25c-0.24-0.02-0.44-0.08-0.62-0.17c-0.09,0.06-0.24,0.12-0.43,0.18c-0.03-0.05-0.08-0.12-0.13-0.2c0.15-0.03,0.27-0.07,0.35-0.11C14.64,15.01,14.57,14.94,14.5,14.86z M14.87,14.93c0.02-0.05,0.03-0.11,0.04-0.19h-0.25C14.72,14.81,14.79,14.88,14.87,14.93z M14.71,14.55h0.2v-0.2h-0.2V14.55z M15.35,14.55v-0.2h-0.21v0.2H15.35z"/><path fill="#27A13A" d="M17.37,15.1c0,0.07-0.02,0.13-0.05,0.17c-0.03,0.04-0.09,0.06-0.16,0.07c-0.07,0.01-0.16,0.01-0.28,0.01c-0.02-0.09-0.04-0.18-0.07-0.25c0.12,0.01,0.19,0.01,0.2,0.01c0.07,0,0.11-0.04,0.11-0.11v-0.16h-0.37v0.49H16.5v-0.49h-0.38c-0.02,0.26-0.07,0.44-0.15,0.54c-0.07-0.05-0.15-0.1-0.23-0.15c0.09-0.13,0.14-0.36,0.14-0.69v-0.83h1.48L17.37,15.1L17.37,15.1z M16.13,14.17h0.37v-0.22h-0.37V14.17z M16.13,14.62h0.37V14.4h-0.37V14.62z M17.12,13.95h-0.37v0.22h0.37V13.95z M16.75,14.62h0.37V14.4h-0.37V14.62z"/><path fill="#27A13A" d="M18.7,14.93c0,0.05,0.01,0.09,0.01,0.13c0.05-0.05,0.09-0.11,0.13-0.18c-0.05-0.14-0.09-0.29-0.1-0.46c-0.01,0.02-0.03,0.05-0.05,0.07c-0.02-0.06-0.05-0.13-0.09-0.2c0.01-0.01,0.01-0.02,0.02-0.04h-0.59c-0.04,0.07-0.08,0.13-0.13,0.19v0.91h-0.2v-0.64c-0.04,0.04-0.07,0.08-0.11,0.12c-0.02-0.07-0.05-0.15-0.08-0.24c0.13-0.15,0.25-0.31,0.36-0.49L18,14.2v-0.39c-0.11,0.15-0.23,0.28-0.35,0.4c-0.04-0.07-0.09-0.13-0.13-0.2c0.13-0.11,0.24-0.25,0.34-0.39l0.18,0.13c-0.01,0.01-0.02,0.02-0.03,0.04h0.16v0.31h0.07v-0.46h0.17v0.46h0.07v-0.31h0.17v0.42c0.07-0.15,0.13-0.35,0.18-0.59l0.21,0.04c-0.02,0.09-0.04,0.17-0.07,0.26h0.31v0.21h-0.06c-0.02,0.29-0.07,0.54-0.15,0.75c0.06,0.09,0.13,0.17,0.21,0.23c-0.04,0.1-0.08,0.18-0.09,0.25c-0.09-0.07-0.17-0.16-0.23-0.26c-0.06,0.1-0.14,0.19-0.22,0.27c-0.03-0.07-0.06-0.13-0.09-0.18c-0.08,0.05-0.14,0.1-0.19,0.14l-0.1-0.13c0.03-0.03,0.04-0.07,0.04-0.11v-0.26h-0.16c0,0.24-0.06,0.42-0.19,0.53c-0.03-0.05-0.08-0.1-0.13-0.15c0.04-0.03,0.06-0.07,0.08-0.12s0.03-0.09,0.04-0.14s0.01-0.15,0.01-0.3h0.53v0.36C18.61,15.01,18.65,14.98,18.7,14.93z M18.01,14.38h0.62v0.17h-0.62V14.38z M18.95,14.63c0.04-0.14,0.07-0.3,0.07-0.49h-0.14v0.01C18.89,14.33,18.91,14.49,18.95,14.63z"/><path fill="#27A13A" d="M19.63,13.65l0.23,0.06c-0.04,0.14-0.09,0.27-0.14,0.4v1.27H19.5V14.6c-0.04,0.08-0.08,0.15-0.13,0.21c-0.01-0.09-0.03-0.2-0.06-0.33C19.43,14.28,19.53,14,19.63,13.65z M21.07,14.04h-1.23v-0.2h0.47c-0.02-0.05-0.04-0.1-0.07-0.16l0.26-0.05c0.03,0.05,0.06,0.12,0.1,0.21h0.47V14.04z M19.91,15.38V14.7h1.06v0.67h-0.24v-0.09h-0.58v0.09h-0.24V15.38z M20.97,14.33h-1.05v-0.19h1.05V14.33z M20.97,14.61h-1.05v-0.19h1.05V14.61z M20.73,14.91h-0.58v0.17h0.58V14.91z"/><path fill="#27A13A" d="M22.63,14.28v0.21c-0.1,0.19-0.23,0.35-0.39,0.48c0.18,0.08,0.39,0.13,0.63,0.15c-0.05,0.08-0.1,0.17-0.14,0.26c-0.27-0.04-0.51-0.12-0.72-0.25c-0.21,0.12-0.46,0.21-0.74,0.26c-0.05-0.09-0.09-0.17-0.14-0.24c0.25-0.03,0.47-0.09,0.65-0.18c-0.13-0.1-0.24-0.23-0.34-0.37l0.16-0.1h-0.28v-0.22h0.56v-0.2h-0.69v-0.22h0.69v-0.22h0.27v0.22h0.69v0.22h-0.69v0.2C22.15,14.28,22.63,14.28,22.63,14.28z M22,14.83c0.13-0.09,0.24-0.21,0.33-0.34h-0.67C21.75,14.63,21.86,14.74,22,14.83z"/><path fill="#27A13A" d="M23.29,13.63l0.23,0.06c-0.04,0.11-0.08,0.22-0.12,0.32v1.36h-0.24v-0.89c-0.05,0.08-0.1,0.15-0.15,0.22c-0.02-0.07-0.04-0.18-0.08-0.32C23.09,14.13,23.21,13.88,23.29,13.63z M23.48,13.97h0.72v-0.31h0.25v0.31h0.24v0.23h-0.24v0.85c0,0.09-0.02,0.16-0.05,0.21c-0.03,0.05-0.08,0.08-0.15,0.08c-0.07,0.01-0.19,0.01-0.38,0.01c-0.01-0.08-0.03-0.17-0.06-0.26c0.1,0.01,0.2,0.01,0.28,0.01s0.12-0.04,0.12-0.13V14.2h-0.72v-0.23H23.48z M23.73,14.3c0.12,0.15,0.22,0.29,0.32,0.43l-0.21,0.14c-0.08-0.15-0.18-0.29-0.29-0.44L23.73,14.3z"/></g><g><path fill="#FFFFFF" d="M3.33,41.54v-0.15h0.3v-0.34h0.22v0.34h0.26v0.15H3.85v0.44c0.02-0.01,0.06-0.02,0.11-0.03c0.07-0.02,0.13-0.04,0.18-0.05v0.14c-0.11,0.05-0.21,0.09-0.29,0.11v0.63c0.01,0.15-0.07,0.22-0.23,0.21H3.41v-0.15h0.13c0.07,0,0.1-0.03,0.09-0.09v-0.54c-0.02,0.01-0.06,0.01-0.1,0.02c-0.03,0.01-0.1,0.02-0.22,0.04v-0.19c0.13-0.02,0.23-0.04,0.33-0.05v-0.49H3.33z M4.18,41.33v-0.15h1.13v0.15H4.93v1.38c0,0.18-0.09,0.27-0.27,0.27H4.4v-0.16h0.17c0.09,0.01,0.13-0.03,0.13-0.11v-1.38H4.18z"/><path fill="#FFFFFF" d="M5.63,41.32v-0.16h1.81v0.16H7.09v0.6h0.42v0.16H7.09V43H6.84v-0.93h-0.6c0.01,0.43-0.2,0.74-0.64,0.95v-0.16c0.27-0.17,0.41-0.43,0.4-0.79H5.53v-0.16h0.47v-0.6H5.63z M6.24,41.32v0.6h0.61v-0.6H6.24z"/><path fill="#FFFFFF" d="M7.7,41.64v-0.13c0.17-0.11,0.27-0.28,0.33-0.48h0.19C8.16,41.35,7.98,41.54,7.7,41.64z M7.7,42.19v-0.14c0.17-0.11,0.27-0.27,0.33-0.46h0.19c-0.04,0.13-0.08,0.23-0.13,0.3v1.12H7.9V42.1C7.84,42.13,7.78,42.17,7.7,42.19z M8.17,43.03v-0.15c0.1-0.06,0.15-0.18,0.15-0.34v-0.4H8.9v0.54c0.03-0.02,0.07-0.05,0.12-0.09c0.02-0.02,0.04-0.03,0.05-0.03v0.15c-0.09,0.09-0.21,0.18-0.34,0.26v-0.68H8.49v0.23C8.5,42.74,8.4,42.9,8.17,43.03z M8.24,41.99v-0.13h0.75v0.13H8.24z M8.25,41.71v-0.56H8.4v0.43h0.15v-0.52H8.7v0.52h0.06c0.07,0.01,0.1-0.03,0.09-0.1v-0.33h0.14v0.35C9,41.63,8.92,41.7,8.78,41.7C8.78,41.7,8.25,41.7,8.25,41.71z M9.7,43c-0.14-0.11-0.25-0.24-0.35-0.37C9.29,42.74,9.17,42.86,9,43v-0.17c0.11-0.11,0.2-0.22,0.27-0.34c-0.1-0.19-0.16-0.45-0.2-0.76L9,41.79v-0.15c0.11-0.15,0.18-0.35,0.21-0.59H9.4c-0.01,0.1-0.02,0.18-0.05,0.25h0.4v0.15h-0.1c-0.01,0.46-0.07,0.81-0.21,1.05c0.07,0.13,0.16,0.24,0.27,0.35C9.7,42.85,9.7,43,9.7,43z M9.35,42.29c0.07-0.2,0.11-0.48,0.12-0.85H9.3c-0.03,0.07-0.08,0.14-0.13,0.2h0.07C9.25,41.9,9.3,42.11,9.35,42.29z"/><path fill="#FFFFFF" d="M10.14,43.01V41.7c-0.06,0.04-0.14,0.08-0.22,0.13v-0.15c0.21-0.16,0.33-0.37,0.38-0.65h0.22c-0.04,0.18-0.09,0.33-0.16,0.44v1.54C10.35,43.01,10.14,43.01,10.14,43.01z M10.5,41.36v-0.15h0.58v-0.17h0.24v0.17h0.58v0.15H10.5z M10.59,41.71v-0.15h1.2v0.15H10.59z M10.59,42.04V41.9h1.2v0.14H10.59z M10.6,42.96v-0.69h1.19v0.43c0.01,0.18-0.08,0.26-0.26,0.26C11.53,42.95,10.6,42.95,10.6,42.96z M10.83,42.81h0.64c0.09,0,0.13-0.03,0.12-0.1v-0.29h-0.76V42.81z"/><path fill="#FFFFFF" d="M13.22,41.78V41.5c0-0.25,0.12-0.42,0.35-0.52v0.11c-0.15,0.09-0.22,0.22-0.21,0.38h0.16v0.31C13.51,41.78,13.22,41.78,13.22,41.78z M13.69,41.78V41.5c0-0.25,0.12-0.42,0.35-0.52v0.11c-0.15,0.09-0.22,0.22-0.21,0.38H14v0.31C14,41.78,13.69,41.78,13.69,41.78z"/><path fill="#FFFFFF" d="M14.33,41.5v-0.15h0.27v-0.3h0.21v0.3h0.24v0.15h-0.24v0.47c0.04-0.01,0.1-0.03,0.18-0.05c0.03-0.01,0.05-0.01,0.06-0.02v0.15c-0.08,0.03-0.16,0.07-0.24,0.09v0.62c0,0.15-0.08,0.23-0.24,0.23h-0.19v-0.16h0.12c0.06,0,0.09-0.03,0.09-0.09v-0.55c-0.09,0.02-0.18,0.03-0.28,0.05v-0.19c0.1-0.01,0.2-0.03,0.28-0.04v-0.52h-0.26V41.5z M15.16,42.1v-0.15h0.81v-0.59h-0.85v-0.16h1.08v1.42c0,0.21-0.1,0.32-0.32,0.31h-0.83v-0.14h0.76c0.11,0.01,0.16-0.05,0.15-0.16V42.1L15.16,42.1L15.16,42.1z"/><path fill="#FFFFFF" d="M16.5,42v-0.16h2.03V42H16.5z"/><path fill="#FFFFFF" d="M18.72,41.5v-0.15h0.27v-0.3h0.21v0.3h0.24v0.15H19.2v0.47c0.04-0.01,0.1-0.03,0.18-0.05c0.03-0.01,0.05-0.01,0.06-0.02v0.15c-0.08,0.03-0.16,0.07-0.24,0.09v0.62c0,0.15-0.08,0.23-0.24,0.23h-0.19v-0.16h0.12c0.06,0,0.09-0.03,0.09-0.09v-0.55c-0.09,0.02-0.18,0.03-0.28,0.05v-0.19c0.1-0.01,0.2-0.03,0.28-0.04v-0.52h-0.26V41.5z M19.56,42.1v-0.15h0.81v-0.59h-0.85v-0.16h1.08v1.42c0,0.21-0.1,0.32-0.32,0.31h-0.83v-0.14h0.76c0.11,0.01,0.16-0.05,0.15-0.16V42.1L19.56,42.1L19.56,42.1z"/><path fill="#FFFFFF" d="M20.94,41.78v-0.11c0.15-0.09,0.22-0.22,0.21-0.39h-0.17v-0.29h0.3v0.26C21.28,41.49,21.17,41.67,20.94,41.78z M21.41,41.78v-0.11c0.15-0.1,0.22-0.23,0.21-0.39h-0.17v-0.29h0.3v0.26C21.76,41.49,21.65,41.67,21.41,41.78z"/><path fill="#FFFFFF" d="M23.23,42.99v-1.72h0.58c0.03-0.06,0.05-0.13,0.07-0.23h0.26c-0.02,0.09-0.04,0.17-0.07,0.23h0.91v1.43c0.01,0.2-0.09,0.29-0.3,0.28h-0.17v-0.16h0.12c0.1,0.01,0.14-0.04,0.14-0.13v-1.26h-1.31v1.56H23.23z M23.69,42.57v-0.84h0.84v0.58c0,0.18-0.09,0.27-0.28,0.27h-0.56V42.57z M23.9,42.42h0.29c0.09,0.01,0.13-0.04,0.13-0.14v-0.4H23.9V42.42z"/><path fill="#FFFFFF" d="M25.36,41.29v-0.15h0.5c0.11,0,0.24-0.02,0.39-0.06v0.16c-0.13,0.03-0.24,0.04-0.31,0.04v0.31h0.46c-0.01-0.18-0.02-0.37-0.02-0.58h0.23c0,0.23,0,0.42,0,0.58h0.71v0.15h-0.7c0.01,0.21,0.03,0.4,0.06,0.57c0.14-0.14,0.25-0.3,0.33-0.46h0.22c-0.14,0.29-0.31,0.51-0.51,0.66c0.07,0.21,0.16,0.32,0.27,0.32c0.09,0.01,0.14-0.05,0.14-0.16h0.16c0,0.22-0.09,0.32-0.28,0.32c-0.2,0.01-0.35-0.11-0.45-0.35c-0.1,0.07-0.27,0.15-0.5,0.23v-0.13c0.17-0.09,0.32-0.17,0.45-0.27c-0.02-0.04-0.03-0.09-0.03-0.15c-0.03-0.15-0.05-0.34-0.07-0.57h-0.47v0.37c0.11-0.02,0.22-0.04,0.34-0.08v0.15c-0.12,0.04-0.23,0.07-0.34,0.1v0.45c0,0.16-0.09,0.23-0.27,0.23h-0.2v-0.15h0.12c0.08,0,0.12-0.04,0.12-0.11v-0.38c-0.09,0.02-0.21,0.03-0.39,0.04v-0.19c0.15-0.01,0.28-0.02,0.39-0.03v-0.41h-0.4v-0.15h0.4v-0.31h-0.35V41.29z M26.92,41.5c-0.02-0.12-0.06-0.25-0.12-0.39h0.19c0.06,0.1,0.11,0.23,0.15,0.39H26.92z"/><path fill="#FFFFFF" d="M27.76,43.01v-1.27c-0.1,0.06-0.18,0.1-0.26,0.12v-0.13c0.22-0.14,0.36-0.38,0.42-0.7h0.24c-0.05,0.22-0.11,0.38-0.18,0.47V43h-0.22V43.01z M28.14,41.56v-0.16h0.87v-0.35h0.22v0.35h0.27v0.16h-0.27v1.15c0.01,0.18-0.09,0.27-0.28,0.27h-0.26v-0.16h0.17c0.1,0.01,0.14-0.04,0.14-0.13v-1.13H28.14z M28.47,42.33c-0.02-0.16-0.08-0.33-0.16-0.54h0.2c0.09,0.16,0.15,0.34,0.18,0.54H28.47z"/><path fill="#FFFFFF" d="M29.69,42.89v-0.11c0.1-0.09,0.16-0.21,0.16-0.35h0.18C30.01,42.65,29.89,42.82,29.69,42.89z M29.72,41.32v-0.14h0.42v-0.15h0.2v0.15h0.41v0.14h-0.41v0.21h0.33v0.14h-0.88v-0.14h0.35v-0.21H29.72z M29.72,42.32v-0.14h1.03v0.14h-0.41v0.42c0.01,0.17-0.07,0.25-0.24,0.24h-0.14v-0.14h0.07c0.08,0.01,0.12-0.03,0.11-0.1v-0.42C30.15,42.32,29.72,42.32,29.72,42.32z M29.81,41.99v-0.14h0.84v0.14H29.81z M30.68,43.03v-0.18l0.03-0.03c-0.17-0.06-0.25-0.19-0.26-0.39h0.17c0,0.14,0.04,0.23,0.12,0.29v0.07c0.23-0.26,0.35-0.6,0.33-1.02v-0.15h0.21v0.15c-0.02,0.42,0.12,0.79,0.4,1.09v0.17c-0.26-0.21-0.43-0.43-0.51-0.66C31.1,42.61,30.93,42.83,30.68,43.03z M30.73,41.75V41.6c0.13-0.12,0.2-0.31,0.21-0.56h0.21c-0.01,0.09-0.03,0.16-0.04,0.23h0.57v0.43h-0.19V41.4h-0.43C31,41.53,30.89,41.64,30.73,41.75z"/></g></svg></mask><filter id="logo_filter" x="-20%" y="-20%" width="140%" height="140%" filterUnits="objectBoundingBox" primitiveUnits="userSpaceOnUse" color-interpolation-filters="linearRGB"><feDropShadow stdDeviation="2 2" in="SourceGraphic" dx="0" dy="1" flood-color="#000000" flood-opacity="0.5" x="-20%" y="-20%" width="140%" height="140%" result="dropShadow"/></filter></defs><use xlink:href="#SvgjsSvg1296"/><g><svg width="225" height="225" viewBox="0 0 370 370" x="82" y="204" style="overflow: visible;"><defs><mask><g id="SvgjsG1292"><path shape-rendering="crispEdges" d="M90,0h10v10h-10v-10ZM130,0h10v10h-10v-10ZM150,0h10v10h-10v-10ZM190,0h10v10h-10v-10ZM220,0h10v10h-10v-10ZM240,0h10v10h-10v-10ZM250,0h10v10h-10v-10ZM260,0h10v10h-10v-10ZM280,0h10v10h-10v-10ZM90,10h10v10h-10v-10ZM120,10h10v10h-10v-10ZM130,10h10v10h-10v-10ZM140,10h10v10h-10v-10ZM150,10h10v10h-10v-10ZM160,10h10v10h-10v-10ZM180,10h10v10h-10v-10ZM200,10h10v10h-10v-10ZM220,10h10v10h-10v-10ZM260,10h10v10h-10v-10ZM280,10h10v10h-10v-10ZM80,20h10v10h-10v-10ZM90,20h10v10h-10v-10ZM100,20h10v10h-10v-10ZM120,20h10v10h-10v-10ZM150,20h10v10h-10v-10ZM160,20h10v10h-10v-10ZM180,20h10v10h-10v-10ZM210,20h10v10h-10v-10ZM220,20h10v10h-10v-10ZM230,20h10v10h-10v-10ZM260,20h10v10h-10v-10ZM100,30h10v10h-10v-10ZM110,30h10v10h-10v-10ZM140,30h10v10h-10v-10ZM170,30h10v10h-10v-10ZM180,30h10v10h-10v-10ZM200,30h10v10h-10v-10ZM210,30h10v10h-10v-10ZM230,30h10v10h-10v-10ZM240,30h10v10h-10v-10ZM250,30h10v10h-10v-10ZM260,30h10v10h-10v-10ZM270,30h10v10h-10v-10ZM80,40h10v10h-10v-10ZM100,40h10v10h-10v-10ZM120,40h10v10h-10v-10ZM130,40h10v10h-10v-10ZM140,40h10v10h-10v-10ZM210,40h10v10h-10v-10ZM220,40h10v10h-10v-10ZM270,40h10v10h-10v-10ZM80,50h10v10h-10v-10ZM110,50h10v10h-10v-10ZM160,50h10v10h-10v-10ZM200,50h10v10h-10v-10ZM240,50h10v10h-10v-10ZM250,50h10v10h-10v-10ZM260,50h10v10h-10v-10ZM80,60h10v10h-10v-10ZM100,60h10v10h-10v-10ZM120,60h10v10h-10v-10ZM140,60h10v10h-10v-10ZM160,60h10v10h-10v-10ZM180,60h10v10h-10v-10ZM200,60h10v10h-10v-10ZM220,60h10v10h-10v-10ZM240,60h10v10h-10v-10ZM260,60h10v10h-10v-10ZM280,60h10v10h-10v-10ZM90,70h10v10h-10v-10ZM140,70h10v10h-10v-10ZM150,70h10v10h-10v-10ZM190,70h10v10h-10v-10ZM210,70h10v10h-10v-10ZM230,70h10v10h-10v-10ZM260,70h10v10h-10v-10ZM10,80h10v10h-10v-10ZM40,80h10v10h-10v-10ZM60,80h10v10h-10v-10ZM80,80h10v10h-10v-10ZM100,80h10v10h-10v-10ZM110,80h10v10h-10v-10ZM150,80h10v10h-10v-10ZM190,80h10v10h-10v-10ZM210,80h10v10h-10v-10ZM220,80h10v10h-10v-10ZM230,80h10v10h-10v-10ZM240,80h10v10h-10v-10ZM250,80h10v10h-10v-10ZM260,80h10v10h-10v-10ZM280,80h10v10h-10v-10ZM290,80h10v10h-10v-10ZM310,80h10v10h-10v-10ZM320,80h10v10h-10v-10ZM340,80h10v10h-10v-10ZM0,90h10v10h-10v-10ZM10,90h10v10h-10v-10ZM30,90h10v10h-10v-10ZM50,90h10v10h-10v-10ZM90,90h10v10h-10v-10ZM100,90h10v10h-10v-10ZM110,90h10v10h-10v-10ZM130,90h10v10h-10v-10ZM170,90h10v10h-10v-10ZM180,90h10v10h-10v-10ZM200,90h10v10h-10v-10ZM210,90h10v10h-10v-10ZM250,90h10v10h-10v-10ZM260,90h10v10h-10v-10ZM280,90h10v10h-10v-10ZM300,90h10v10h-10v-10ZM320,90h10v10h-10v-10ZM340,90h10v10h-10v-10ZM350,90h10v10h-10v-10ZM360,90h10v10h-10v-10ZM0,100h10v10h-10v-10ZM30,100h10v10h-10v-10ZM60,100h10v10h-10v-10ZM80,100h10v10h-10v-10ZM90,100h10v10h-10v-10ZM100,100h10v10h-10v-10ZM120,100h10v10h-10v-10ZM220,100h10v10h-10v-10ZM230,100h10v10h-10v-10ZM240,100h10v10h-10v-10ZM250,100h10v10h-10v-10ZM270,100h10v10h-10v-10ZM290,100h10v10h-10v-10ZM300,100h10v10h-10v-10ZM320,100h10v10h-10v-10ZM330,100h10v10h-10v-10ZM0,110h10v10h-10v-10ZM10,110h10v10h-10v-10ZM20,110h10v10h-10v-10ZM30,110h10v10h-10v-10ZM40,110h10v10h-10v-10ZM50,110h10v10h-10v-10ZM80,110h10v10h-10v-10ZM100,110h10v10h-10v-10ZM120,110h10v10h-10v-10ZM140,110h10v10h-10v-10ZM150,110h10v10h-10v-10ZM160,110h10v10h-10v-10ZM170,110h10v10h-10v-10ZM180,110h10v10h-10v-10ZM190,110h10v10h-10v-10ZM210,110h10v10h-10v-10ZM220,110h10v10h-10v-10ZM230,110h10v10h-10v-10ZM240,110h10v10h-10v-10ZM270,110h10v10h-10v-10ZM280,110h10v10h-10v-10ZM290,110h10v10h-10v-10ZM300,110h10v10h-10v-10ZM310,110h10v10h-10v-10ZM340,110h10v10h-10v-10ZM350,110h10v10h-10v-10ZM360,110h10v10h-10v-10ZM10,120h10v10h-10v-10ZM20,120h10v10h-10v-10ZM30,120h10v10h-10v-10ZM50,120h10v10h-10v-10ZM60,120h10v10h-10v-10ZM70,120h10v10h-10v-10ZM100,120h10v10h-10v-10ZM110,120h10v10h-10v-10ZM120,120h10v10h-10v-10ZM130,120h10v10h-10v-10ZM140,120h10v10h-10v-10ZM150,120h10v10h-10v-10ZM190,120h10v10h-10v-10ZM200,120h10v10h-10v-10ZM210,120h10v10h-10v-10ZM220,120h10v10h-10v-10ZM280,120h10v10h-10v-10ZM300,120h10v10h-10v-10ZM330,120h10v10h-10v-10ZM350,120h10v10h-10v-10ZM10,130h10v10h-10v-10ZM20,130h10v10h-10v-10ZM140,130h10v10h-10v-10ZM160,130h10v10h-10v-10ZM170,130h10v10h-10v-10ZM180,130h10v10h-10v-10ZM200,130h10v10h-10v-10ZM210,130h10v10h-10v-10ZM230,130h10v10h-10v-10ZM250,130h10v10h-10v-10ZM260,130h10v10h-10v-10ZM280,130h10v10h-10v-10ZM320,130h10v10h-10v-10ZM330,130h10v10h-10v-10ZM350,130h10v10h-10v-10ZM0,140h10v10h-10v-10ZM30,140h10v10h-10v-10ZM40,140h10v10h-10v-10ZM60,140h10v10h-10v-10ZM90,140h10v10h-10v-10ZM110,140h10v10h-10v-10ZM140,140h10v10h-10v-10ZM150,140h10v10h-10v-10ZM160,140h10v10h-10v-10ZM180,140h10v10h-10v-10ZM200,140h10v10h-10v-10ZM230,140h10v10h-10v-10ZM250,140h10v10h-10v-10ZM260,140h10v10h-10v-10ZM270,140h10v10h-10v-10ZM280,140h10v10h-10v-10ZM300,140h10v10h-10v-10ZM310,140h10v10h-10v-10ZM20,150h10v10h-10v-10ZM30,150h10v10h-10v-10ZM70,150h10v10h-10v-10ZM100,150h10v10h-10v-10ZM110,150h10v10h-10v-10ZM120,150h10v10h-10v-10ZM150,150h10v10h-10v-10ZM160,150h10v10h-10v-10ZM180,150h10v10h-10v-10ZM220,150h10v10h-10v-10ZM240,150h10v10h-10v-10ZM280,150h10v10h-10v-10ZM320,150h10v10h-10v-10ZM340,150h10v10h-10v-10ZM360,150h10v10h-10v-10ZM0,160h10v10h-10v-10ZM10,160h10v10h-10v-10ZM20,160h10v10h-10v-10ZM40,160h10v10h-10v-10ZM60,160h10v10h-10v-10ZM70,160h10v10h-10v-10ZM120,160h10v10h-10v-10ZM130,160h10v10h-10v-10ZM140,160h10v10h-10v-10ZM180,160h10v10h-10v-10ZM190,160h10v10h-10v-10ZM220,160h10v10h-10v-10ZM230,160h10v10h-10v-10ZM240,160h10v10h-10v-10ZM260,160h10v10h-10v-10ZM280,160h10v10h-10v-10ZM300,160h10v10h-10v-10ZM310,160h10v10h-10v-10ZM330,160h10v10h-10v-10ZM340,160h10v10h-10v-10ZM0,170h10v10h-10v-10ZM20,170h10v10h-10v-10ZM30,170h10v10h-10v-10ZM40,170h10v10h-10v-10ZM70,170h10v10h-10v-10ZM80,170h10v10h-10v-10ZM90,170h10v10h-10v-10ZM120,170h10v10h-10v-10ZM180,170h10v10h-10v-10ZM190,170h10v10h-10v-10ZM210,170h10v10h-10v-10ZM270,170h10v10h-10v-10ZM310,170h10v10h-10v-10ZM320,170h10v10h-10v-10ZM350,170h10v10h-10v-10ZM20,180h10v10h-10v-10ZM30,180h10v10h-10v-10ZM60,180h10v10h-10v-10ZM90,180h10v10h-10v-10ZM110,180h10v10h-10v-10ZM130,180h10v10h-10v-10ZM170,180h10v10h-10v-10ZM180,180h10v10h-10v-10ZM210,180h10v10h-10v-10ZM220,180h10v10h-10v-10ZM270,180h10v10h-10v-10ZM290,180h10v10h-10v-10ZM310,180h10v10h-10v-10ZM40,190h10v10h-10v-10ZM70,190h10v10h-10v-10ZM100,190h10v10h-10v-10ZM110,190h10v10h-10v-10ZM120,190h10v10h-10v-10ZM150,190h10v10h-10v-10ZM170,190h10v10h-10v-10ZM210,190h10v10h-10v-10ZM240,190h10v10h-10v-10ZM260,190h10v10h-10v-10ZM270,190h10v10h-10v-10ZM280,190h10v10h-10v-10ZM290,190h10v10h-10v-10ZM340,190h10v10h-10v-10ZM0,200h10v10h-10v-10ZM10,200h10v10h-10v-10ZM30,200h10v10h-10v-10ZM50,200h10v10h-10v-10ZM60,200h10v10h-10v-10ZM90,200h10v10h-10v-10ZM100,200h10v10h-10v-10ZM110,200h10v10h-10v-10ZM160,200h10v10h-10v-10ZM170,200h10v10h-10v-10ZM190,200h10v10h-10v-10ZM200,200h10v10h-10v-10ZM210,200h10v10h-10v-10ZM220,200h10v10h-10v-10ZM230,200h10v10h-10v-10ZM260,200h10v10h-10v-10ZM270,200h10v10h-10v-10ZM290,200h10v10h-10v-10ZM300,200h10v10h-10v-10ZM340,200h10v10h-10v-10ZM350,200h10v10h-10v-10ZM360,200h10v10h-10v-10ZM10,210h10v10h-10v-10ZM30,210h10v10h-10v-10ZM40,210h10v10h-10v-10ZM70,210h10v10h-10v-10ZM80,210h10v10h-10v-10ZM120,210h10v10h-10v-10ZM140,210h10v10h-10v-10ZM160,210h10v10h-10v-10ZM180,210h10v10h-10v-10ZM190,210h10v10h-10v-10ZM200,210h10v10h-10v-10ZM220,210h10v10h-10v-10ZM230,210h10v10h-10v-10ZM270,210h10v10h-10v-10ZM280,210h10v10h-10v-10ZM290,210h10v10h-10v-10ZM300,210h10v10h-10v-10ZM310,210h10v10h-10v-10ZM320,210h10v10h-10v-10ZM330,210h10v10h-10v-10ZM340,210h10v10h-10v-10ZM0,220h10v10h-10v-10ZM20,220h10v10h-10v-10ZM60,220h10v10h-10v-10ZM70,220h10v10h-10v-10ZM90,220h10v10h-10v-10ZM110,220h10v10h-10v-10ZM140,220h10v10h-10v-10ZM170,220h10v10h-10v-10ZM190,220h10v10h-10v-10ZM200,220h10v10h-10v-10ZM230,220h10v10h-10v-10ZM250,220h10v10h-10v-10ZM260,220h10v10h-10v-10ZM270,220h10v10h-10v-10ZM30,230h10v10h-10v-10ZM50,230h10v10h-10v-10ZM80,230h10v10h-10v-10ZM90,230h10v10h-10v-10ZM100,230h10v10h-10v-10ZM120,230h10v10h-10v-10ZM140,230h10v10h-10v-10ZM200,230h10v10h-10v-10ZM210,230h10v10h-10v-10ZM220,230h10v10h-10v-10ZM250,230h10v10h-10v-10ZM340,230h10v10h-10v-10ZM350,230h10v10h-10v-10ZM360,230h10v10h-10v-10ZM10,240h10v10h-10v-10ZM20,240h10v10h-10v-10ZM30,240h10v10h-10v-10ZM40,240h10v10h-10v-10ZM60,240h10v10h-10v-10ZM70,240h10v10h-10v-10ZM130,240h10v10h-10v-10ZM140,240h10v10h-10v-10ZM170,240h10v10h-10v-10ZM180,240h10v10h-10v-10ZM190,240h10v10h-10v-10ZM200,240h10v10h-10v-10ZM210,240h10v10h-10v-10ZM220,240h10v10h-10v-10ZM240,240h10v10h-10v-10ZM250,240h10v10h-10v-10ZM270,240h10v10h-10v-10ZM280,240h10v10h-10v-10ZM300,240h10v10h-10v-10ZM340,240h10v10h-10v-10ZM0,250h10v10h-10v-10ZM10,250h10v10h-10v-10ZM30,250h10v10h-10v-10ZM70,250h10v10h-10v-10ZM80,250h10v10h-10v-10ZM140,250h10v10h-10v-10ZM170,250h10v10h-10v-10ZM180,250h10v10h-10v-10ZM190,250h10v10h-10v-10ZM210,250h10v10h-10v-10ZM230,250h10v10h-10v-10ZM250,250h10v10h-10v-10ZM260,250h10v10h-10v-10ZM270,250h10v10h-10v-10ZM280,250h10v10h-10v-10ZM290,250h10v10h-10v-10ZM310,250h10v10h-10v-10ZM320,250h10v10h-10v-10ZM340,250h10v10h-10v-10ZM360,250h10v10h-10v-10ZM30,260h10v10h-10v-10ZM50,260h10v10h-10v-10ZM60,260h10v10h-10v-10ZM70,260h10v10h-10v-10ZM100,260h10v10h-10v-10ZM110,260h10v10h-10v-10ZM140,260h10v10h-10v-10ZM150,260h10v10h-10v-10ZM200,260h10v10h-10v-10ZM230,260h10v10h-10v-10ZM240,260h10v10h-10v-10ZM250,260h10v10h-10v-10ZM260,260h10v10h-10v-10ZM270,260h10v10h-10v-10ZM300,260h10v10h-10v-10ZM310,260h10v10h-10v-10ZM330,260h10v10h-10v-10ZM340,260h10v10h-10v-10ZM80,270h10v10h-10v-10ZM140,270h10v10h-10v-10ZM150,270h10v10h-10v-10ZM160,270h10v10h-10v-10ZM170,270h10v10h-10v-10ZM190,270h10v10h-10v-10ZM200,270h10v10h-10v-10ZM210,270h10v10h-10v-10ZM230,270h10v10h-10v-10ZM270,270h10v10h-10v-10ZM280,270h10v10h-10v-10ZM300,270h10v10h-10v-10ZM320,270h10v10h-10v-10ZM340,270h10v10h-10v-10ZM350,270h10v10h-10v-10ZM0,280h10v10h-10v-10ZM10,280h10v10h-10v-10ZM20,280h10v10h-10v-10ZM40,280h10v10h-10v-10ZM60,280h10v10h-10v-10ZM70,280h10v10h-10v-10ZM80,280h10v10h-10v-10ZM110,280h10v10h-10v-10ZM140,280h10v10h-10v-10ZM150,280h10v10h-10v-10ZM180,280h10v10h-10v-10ZM190,280h10v10h-10v-10ZM220,280h10v10h-10v-10ZM240,280h10v10h-10v-10ZM260,280h10v10h-10v-10ZM270,280h10v10h-10v-10ZM280,280h10v10h-10v-10ZM290,280h10v10h-10v-10ZM300,280h10v10h-10v-10ZM310,280h10v10h-10v-10ZM320,280h10v10h-10v-10ZM350,280h10v10h-10v-10ZM80,290h10v10h-10v-10ZM90,290h10v10h-10v-10ZM130,290h10v10h-10v-10ZM140,290h10v10h-10v-10ZM180,290h10v10h-10v-10ZM200,290h10v10h-10v-10ZM220,290h10v10h-10v-10ZM250,290h10v10h-10v-10ZM280,290h10v10h-10v-10ZM320,290h10v10h-10v-10ZM340,290h10v10h-10v-10ZM100,300h10v10h-10v-10ZM120,300h10v10h-10v-10ZM140,300h10v10h-10v-10ZM150,300h10v10h-10v-10ZM180,300h10v10h-10v-10ZM210,300h10v10h-10v-10ZM220,300h10v10h-10v-10ZM230,300h10v10h-10v-10ZM260,300h10v10h-10v-10ZM270,300h10v10h-10v-10ZM280,300h10v10h-10v-10ZM300,300h10v10h-10v-10ZM320,300h10v10h-10v-10ZM330,300h10v10h-10v-10ZM340,300h10v10h-10v-10ZM100,310h10v10h-10v-10ZM130,310h10v10h-10v-10ZM150,310h10v10h-10v-10ZM160,310h10v10h-10v-10ZM180,310h10v10h-10v-10ZM190,310h10v10h-10v-10ZM210,310h10v10h-10v-10ZM230,310h10v10h-10v-10ZM280,310h10v10h-10v-10ZM320,310h10v10h-10v-10ZM340,310h10v10h-10v-10ZM350,310h10v10h-10v-10ZM80,320h10v10h-10v-10ZM90,320h10v10h-10v-10ZM120,320h10v10h-10v-10ZM130,320h10v10h-10v-10ZM140,320h10v10h-10v-10ZM150,320h10v10h-10v-10ZM180,320h10v10h-10v-10ZM200,320h10v10h-10v-10ZM280,320h10v10h-10v-10ZM290,320h10v10h-10v-10ZM300,320h10v10h-10v-10ZM310,320h10v10h-10v-10ZM320,320h10v10h-10v-10ZM330,320h10v10h-10v-10ZM340,320h10v10h-10v-10ZM360,320h10v10h-10v-10ZM90,330h10v10h-10v-10ZM100,330h10v10h-10v-10ZM120,330h10v10h-10v-10ZM130,330h10v10h-10v-10ZM170,330h10v10h-10v-10ZM180,330h10v10h-10v-10ZM190,330h10v10h-10v-10ZM220,330h10v10h-10v-10ZM240,330h10v10h-10v-10ZM250,330h10v10h-10v-10ZM260,330h10v10h-10v-10ZM270,330h10v10h-10v-10ZM300,330h10v10h-10v-10ZM350,330h10v10h-10v-10ZM90,340h10v10h-10v-10ZM120,340h10v10h-10v-10ZM140,340h10v10h-10v-10ZM180,340h10v10h-10v-10ZM190,340h10v10h-10v-10ZM210,340h10v10h-10v-10ZM220,340h10v10h-10v-10ZM230,340h10v10h-10v-10ZM240,340h10v10h-10v-10ZM270,340h10v10h-10v-10ZM290,340h10v10h-10v-10ZM300,340h10v10h-10v-10ZM310,340h10v10h-10v-10ZM340,340h10v10h-10v-10ZM350,340h10v10h-10v-10ZM80,350h10v10h-10v-10ZM90,350h10v10h-10v-10ZM120,350h10v10h-10v-10ZM130,350h10v10h-10v-10ZM160,350h10v10h-10v-10ZM170,350h10v10h-10v-10ZM190,350h10v10h-10v-10ZM200,350h10v10h-10v-10ZM210,350h10v10h-10v-10ZM220,350h10v10h-10v-10ZM230,350h10v10h-10v-10ZM270,350h10v10h-10v-10ZM300,350h10v10h-10v-10ZM320,350h10v10h-10v-10ZM340,350h10v10h-10v-10ZM350,350h10v10h-10v-10ZM90,360h10v10h-10v-10ZM120,360h10v10h-10v-10ZM170,360h10v10h-10v-10ZM180,360h10v10h-10v-10ZM220,360h10v10h-10v-10ZM260,360h10v10h-10v-10ZM270,360h10v10h-10v-10ZM290,360h10v10h-10v-10ZM300,360h10v10h-10v-10ZM330,360h10v10h-10v-10ZM350,360h10v10h-10v-10ZM360,360h10v10h-10v-10Z"/></g></mask><svg width="70" height="70" viewBox="0 0 70 70" id="SvgjsSvg1291"><path d="M70,70H0V0h70V70z M10,60h50V10H10V60z M20,20h30v30H20V20z" shape-rendering="crispEdges"/></svg><mask><g id="SvgjsG1293"><use xlink:href="#SvgjsSvg1291"/><use xlink:href="#SvgjsSvg1291" transform="matrix(-1,0,0,1,370,0)"/><use xlink:href="#SvgjsSvg1291" transform="matrix(1,0,0,-1,0,370)"/></g></mask><linearGradient x1="0" y1="0" x2="1" y2="1" id="SvgjsLinearGradient1254"><stop stop-color="#5dc301" offset="0"/><stop stop-color="#459800" offset="1"/></linearGradient><filter id="white_filter" x="-20%" y="-20%" width="140%" height="140%" filterUnits="objectBoundingBox" primitiveUnits="userSpaceOnUse" color-interpolation-filters="linearRGB"><feColorMatrix type="matrix" values="0 0 0 0 255 0 0 0 0 255 0 0 0 0 255 0 0 0 1 0" x="-20%" y="-20%" width="140%" height="140%" in="SourceGraphic" result="colormatrix"/></filter></defs><use xlink:href="#SvgjsG1292"/><use xlink:href="#SvgjsG1293"/></svg></g><svg width="57" height="57" viewBox="0 0 58 58" x="166" y="288" filter="url(#logo_filter)"><defs><svg x="0px" y="0px" width="50" height="50" viewBox="0 0 50 50" id="SvgjsSvg1294"><path fill="#FFFFFF" stroke="#FFFFFF" stroke-width="6" stroke-linejoin="round" stroke-miterlimit="10" d="M32.86,17.88c0.51,0,1.01,0.04,1.5,0.09c-1.35-6.29-8.08-10.96-15.75-10.96C10.03,7.01,3,12.86,3,20.29c0,4.29,2.34,7.81,6.25,10.54l-1.56,4.7l5.46-2.74c1.95,0.39,3.52,0.78,5.47,0.78c0.49,0,0.98-0.02,1.46-0.06c-0.3-1.04-0.48-2.14-0.48-3.27C19.59,23.42,25.44,17.88,32.86,17.88L32.86,17.88z M47,30.1c0-6.24-6.25-11.33-13.26-11.33c-7.43,0-13.28,5.09-13.28,11.33c0,6.25,5.85,11.33,13.28,11.33c1.55,0,3.12-0.39,4.68-0.79l4.28,2.35l-1.17-3.9C44.67,36.74,47,33.62,47,30.1L47,30.1z"/><path fill="#51C332" d="M32.86,17.88c0.51,0,1.01,0.04,1.5,0.09c-1.35-6.29-8.07-10.96-15.75-10.96C10.03,7.01,3,12.86,3,20.29c0,4.29,2.34,7.81,6.25,10.54l-1.56,4.7l5.46-2.74c1.95,0.39,3.52,0.78,5.47,0.78c0.49,0,0.97-0.02,1.46-0.06c-0.3-1.04-0.48-2.14-0.48-3.27C19.59,23.42,25.44,17.88,32.86,17.88L32.86,17.88z M24.36,13.33c1.33,0,2.41,1.08,2.41,2.41s-1.08,2.41-2.41,2.41s-2.41-1.08-2.41-2.41S23.02,13.33,24.36,13.33L24.36,13.33z M13.43,18.21c-1.33,0-2.41-1.08-2.41-2.41s1.08-2.41,2.41-2.41s2.41,1.08,2.41,2.41S14.77,18.21,13.43,18.21L13.43,18.21z M47,30.1c0-6.24-6.25-11.33-13.26-11.33c-7.43,0-13.28,5.09-13.28,11.33c0,6.25,5.85,11.33,13.28,11.33c1.55,0,3.12-0.39,4.68-0.78l4.28,2.35l-1.17-3.9C44.67,36.74,47,33.62,47,30.1L47,30.1z M29.66,28.35c-0.95,0-1.72-0.77-1.72-1.72s0.77-1.72,1.72-1.72c0.95,0,1.72,0.77,1.72,1.72S30.61,28.35,29.66,28.35L29.66,28.35z M38.24,28.45c-0.95,0-1.72-0.77-1.72-1.72s0.77-1.72,1.72-1.72s1.72,0.77,1.72,1.72S39.19,28.45,38.24,28.45L38.24,28.45z"/></svg><clipPath id="SvgjsClipPath1295"><rect rx="4" ry="4" stroke-width="0.5" stroke="#bbbbbb" fill="none" x="0" y="0" width="50" height="50"/></clipPath></defs><rect rx="6" ry="6" fill="#FFFFFF" x="0" y="0" width="58" height="58"/><use xlink:href="#SvgjsSvg1294" clip-path="url(#SvgjsClipPath1295)" transform="matrix(1,0,0,1,4,4)"/><rect rx="4" ry="4" stroke-width="0.5" stroke="#bbbbbb" fill="none" x="4" y="4" width="50" height="50"/></svg></svg></svg>
