<svg xmlns="http://www.w3.org/2000/svg" viewBox="0 0 1000 500"><svg version="1.1" xmlns:xlink="http://www.w3.org/1999/xlink" xmlns:svgjs="http://svgjs.dev/svgjs" width="500" height="500" viewBox="0 0 500 500" x="0"><rect width="500" height="500" x="0" y="0" fill="#ffffff"/><defs><filter id="logo_filter" x="-20%" y="-20%" width="140%" height="140%" filterUnits="objectBoundingBox" primitiveUnits="userSpaceOnUse" color-interpolation-filters="linearRGB"><feDropShadow stdDeviation="2 2" in="SourceGraphic" dx="0" dy="1" flood-color="#000000" flood-opacity="0.5" x="-20%" y="-20%" width="140%" height="140%" result="dropShadow"/></filter></defs><g><svg width="460" height="460" viewBox="0 0 330 330" x="20" y="20" style="overflow: visible;"><defs><mask><g id="SvgjsG1377"><path shape-rendering="crispEdges" d="M80,0h10v10h-10v-10ZM90,0h10v10h-10v-10ZM120,0h10v10h-10v-10ZM140,0h10v10h-10v-10ZM180,0h10v10h-10v-10ZM190,0h10v10h-10v-10ZM200,0h10v10h-10v-10ZM210,0h10v10h-10v-10ZM220,0h10v10h-10v-10ZM230,0h10v10h-10v-10ZM100,10h10v10h-10v-10ZM120,10h10v10h-10v-10ZM130,10h10v10h-10v-10ZM140,10h10v10h-10v-10ZM150,10h10v10h-10v-10ZM170,10h10v10h-10v-10ZM180,10h10v10h-10v-10ZM200,10h10v10h-10v-10ZM210,10h10v10h-10v-10ZM230,10h10v10h-10v-10ZM80,20h10v10h-10v-10ZM100,20h10v10h-10v-10ZM150,20h10v10h-10v-10ZM170,20h10v10h-10v-10ZM180,20h10v10h-10v-10ZM200,20h10v10h-10v-10ZM230,20h10v10h-10v-10ZM80,30h10v10h-10v-10ZM90,30h10v10h-10v-10ZM150,30h10v10h-10v-10ZM170,30h10v10h-10v-10ZM200,30h10v10h-10v-10ZM220,30h10v10h-10v-10ZM90,40h10v10h-10v-10ZM110,40h10v10h-10v-10ZM120,40h10v10h-10v-10ZM170,40h10v10h-10v-10ZM180,40h10v10h-10v-10ZM200,40h10v10h-10v-10ZM210,40h10v10h-10v-10ZM230,40h10v10h-10v-10ZM80,50h10v10h-10v-10ZM100,50h10v10h-10v-10ZM110,50h10v10h-10v-10ZM150,50h10v10h-10v-10ZM160,50h10v10h-10v-10ZM170,50h10v10h-10v-10ZM180,50h10v10h-10v-10ZM190,50h10v10h-10v-10ZM200,50h10v10h-10v-10ZM210,50h10v10h-10v-10ZM240,50h10v10h-10v-10ZM80,60h10v10h-10v-10ZM100,60h10v10h-10v-10ZM120,60h10v10h-10v-10ZM140,60h10v10h-10v-10ZM160,60h10v10h-10v-10ZM180,60h10v10h-10v-10ZM200,60h10v10h-10v-10ZM220,60h10v10h-10v-10ZM240,60h10v10h-10v-10ZM80,70h10v10h-10v-10ZM100,70h10v10h-10v-10ZM110,70h10v10h-10v-10ZM130,70h10v10h-10v-10ZM150,70h10v10h-10v-10ZM170,70h10v10h-10v-10ZM180,70h10v10h-10v-10ZM210,70h10v10h-10v-10ZM240,70h10v10h-10v-10ZM10,80h10v10h-10v-10ZM30,80h10v10h-10v-10ZM50,80h10v10h-10v-10ZM60,80h10v10h-10v-10ZM70,80h10v10h-10v-10ZM80,80h10v10h-10v-10ZM90,80h10v10h-10v-10ZM110,80h10v10h-10v-10ZM120,80h10v10h-10v-10ZM130,80h10v10h-10v-10ZM150,80h10v10h-10v-10ZM160,80h10v10h-10v-10ZM190,80h10v10h-10v-10ZM210,80h10v10h-10v-10ZM240,80h10v10h-10v-10ZM250,80h10v10h-10v-10ZM260,80h10v10h-10v-10ZM270,80h10v10h-10v-10ZM290,80h10v10h-10v-10ZM300,80h10v10h-10v-10ZM320,80h10v10h-10v-10ZM10,90h10v10h-10v-10ZM20,90h10v10h-10v-10ZM50,90h10v10h-10v-10ZM70,90h10v10h-10v-10ZM80,90h10v10h-10v-10ZM110,90h10v10h-10v-10ZM120,90h10v10h-10v-10ZM150,90h10v10h-10v-10ZM200,90h10v10h-10v-10ZM210,90h10v10h-10v-10ZM220,90h10v10h-10v-10ZM240,90h10v10h-10v-10ZM250,90h10v10h-10v-10ZM260,90h10v10h-10v-10ZM270,90h10v10h-10v-10ZM320,90h10v10h-10v-10ZM10,100h10v10h-10v-10ZM30,100h10v10h-10v-10ZM40,100h10v10h-10v-10ZM50,100h10v10h-10v-10ZM60,100h10v10h-10v-10ZM70,100h10v10h-10v-10ZM100,100h10v10h-10v-10ZM130,100h10v10h-10v-10ZM150,100h10v10h-10v-10ZM170,100h10v10h-10v-10ZM190,100h10v10h-10v-10ZM250,100h10v10h-10v-10ZM260,100h10v10h-10v-10ZM270,100h10v10h-10v-10ZM280,100h10v10h-10v-10ZM300,100h10v10h-10v-10ZM310,100h10v10h-10v-10ZM320,100h10v10h-10v-10ZM10,110h10v10h-10v-10ZM40,110h10v10h-10v-10ZM50,110h10v10h-10v-10ZM70,110h10v10h-10v-10ZM80,110h10v10h-10v-10ZM90,110h10v10h-10v-10ZM100,110h10v10h-10v-10ZM120,110h10v10h-10v-10ZM130,110h10v10h-10v-10ZM140,110h10v10h-10v-10ZM160,110h10v10h-10v-10ZM170,110h10v10h-10v-10ZM210,110h10v10h-10v-10ZM220,110h10v10h-10v-10ZM280,110h10v10h-10v-10ZM290,110h10v10h-10v-10ZM310,110h10v10h-10v-10ZM320,110h10v10h-10v-10ZM0,120h10v10h-10v-10ZM10,120h10v10h-10v-10ZM40,120h10v10h-10v-10ZM60,120h10v10h-10v-10ZM80,120h10v10h-10v-10ZM90,120h10v10h-10v-10ZM100,120h10v10h-10v-10ZM110,120h10v10h-10v-10ZM140,120h10v10h-10v-10ZM160,120h10v10h-10v-10ZM190,120h10v10h-10v-10ZM210,120h10v10h-10v-10ZM240,120h10v10h-10v-10ZM250,120h10v10h-10v-10ZM260,120h10v10h-10v-10ZM270,120h10v10h-10v-10ZM290,120h10v10h-10v-10ZM30,130h10v10h-10v-10ZM40,130h10v10h-10v-10ZM70,130h10v10h-10v-10ZM110,130h10v10h-10v-10ZM130,130h10v10h-10v-10ZM160,130h10v10h-10v-10ZM170,130h10v10h-10v-10ZM190,130h10v10h-10v-10ZM210,130h10v10h-10v-10ZM220,130h10v10h-10v-10ZM240,130h10v10h-10v-10ZM260,130h10v10h-10v-10ZM280,130h10v10h-10v-10ZM290,130h10v10h-10v-10ZM310,130h10v10h-10v-10ZM320,130h10v10h-10v-10ZM0,140h10v10h-10v-10ZM10,140h10v10h-10v-10ZM60,140h10v10h-10v-10ZM70,140h10v10h-10v-10ZM90,140h10v10h-10v-10ZM110,140h10v10h-10v-10ZM160,140h10v10h-10v-10ZM170,140h10v10h-10v-10ZM220,140h10v10h-10v-10ZM230,140h10v10h-10v-10ZM250,140h10v10h-10v-10ZM260,140h10v10h-10v-10ZM270,140h10v10h-10v-10ZM280,140h10v10h-10v-10ZM300,140h10v10h-10v-10ZM310,140h10v10h-10v-10ZM10,150h10v10h-10v-10ZM40,150h10v10h-10v-10ZM70,150h10v10h-10v-10ZM80,150h10v10h-10v-10ZM110,150h10v10h-10v-10ZM120,150h10v10h-10v-10ZM170,150h10v10h-10v-10ZM210,150h10v10h-10v-10ZM260,150h10v10h-10v-10ZM290,150h10v10h-10v-10ZM310,150h10v10h-10v-10ZM0,160h10v10h-10v-10ZM30,160h10v10h-10v-10ZM40,160h10v10h-10v-10ZM50,160h10v10h-10v-10ZM60,160h10v10h-10v-10ZM70,160h10v10h-10v-10ZM80,160h10v10h-10v-10ZM120,160h10v10h-10v-10ZM140,160h10v10h-10v-10ZM150,160h10v10h-10v-10ZM160,160h10v10h-10v-10ZM170,160h10v10h-10v-10ZM190,160h10v10h-10v-10ZM200,160h10v10h-10v-10ZM210,160h10v10h-10v-10ZM220,160h10v10h-10v-10ZM240,160h10v10h-10v-10ZM260,160h10v10h-10v-10ZM280,160h10v10h-10v-10ZM290,160h10v10h-10v-10ZM310,160h10v10h-10v-10ZM10,170h10v10h-10v-10ZM40,170h10v10h-10v-10ZM50,170h10v10h-10v-10ZM90,170h10v10h-10v-10ZM210,170h10v10h-10v-10ZM230,170h10v10h-10v-10ZM240,170h10v10h-10v-10ZM270,170h10v10h-10v-10ZM290,170h10v10h-10v-10ZM0,180h10v10h-10v-10ZM20,180h10v10h-10v-10ZM60,180h10v10h-10v-10ZM80,180h10v10h-10v-10ZM110,180h10v10h-10v-10ZM120,180h10v10h-10v-10ZM130,180h10v10h-10v-10ZM140,180h10v10h-10v-10ZM150,180h10v10h-10v-10ZM160,180h10v10h-10v-10ZM210,180h10v10h-10v-10ZM220,180h10v10h-10v-10ZM240,180h10v10h-10v-10ZM300,180h10v10h-10v-10ZM310,180h10v10h-10v-10ZM320,180h10v10h-10v-10ZM0,190h10v10h-10v-10ZM10,190h10v10h-10v-10ZM20,190h10v10h-10v-10ZM70,190h10v10h-10v-10ZM80,190h10v10h-10v-10ZM100,190h10v10h-10v-10ZM140,190h10v10h-10v-10ZM150,190h10v10h-10v-10ZM160,190h10v10h-10v-10ZM170,190h10v10h-10v-10ZM180,190h10v10h-10v-10ZM190,190h10v10h-10v-10ZM210,190h10v10h-10v-10ZM220,190h10v10h-10v-10ZM240,190h10v10h-10v-10ZM250,190h10v10h-10v-10ZM260,190h10v10h-10v-10ZM270,190h10v10h-10v-10ZM310,190h10v10h-10v-10ZM320,190h10v10h-10v-10ZM20,200h10v10h-10v-10ZM30,200h10v10h-10v-10ZM50,200h10v10h-10v-10ZM60,200h10v10h-10v-10ZM70,200h10v10h-10v-10ZM80,200h10v10h-10v-10ZM90,200h10v10h-10v-10ZM100,200h10v10h-10v-10ZM130,200h10v10h-10v-10ZM140,200h10v10h-10v-10ZM150,200h10v10h-10v-10ZM160,200h10v10h-10v-10ZM180,200h10v10h-10v-10ZM210,200h10v10h-10v-10ZM240,200h10v10h-10v-10ZM250,200h10v10h-10v-10ZM270,200h10v10h-10v-10ZM320,200h10v10h-10v-10ZM40,210h10v10h-10v-10ZM90,210h10v10h-10v-10ZM100,210h10v10h-10v-10ZM120,210h10v10h-10v-10ZM140,210h10v10h-10v-10ZM150,210h10v10h-10v-10ZM170,210h10v10h-10v-10ZM180,210h10v10h-10v-10ZM200,210h10v10h-10v-10ZM210,210h10v10h-10v-10ZM220,210h10v10h-10v-10ZM240,210h10v10h-10v-10ZM250,210h10v10h-10v-10ZM260,210h10v10h-10v-10ZM270,210h10v10h-10v-10ZM290,210h10v10h-10v-10ZM310,210h10v10h-10v-10ZM320,210h10v10h-10v-10ZM0,220h10v10h-10v-10ZM10,220h10v10h-10v-10ZM20,220h10v10h-10v-10ZM30,220h10v10h-10v-10ZM50,220h10v10h-10v-10ZM60,220h10v10h-10v-10ZM70,220h10v10h-10v-10ZM100,220h10v10h-10v-10ZM130,220h10v10h-10v-10ZM170,220h10v10h-10v-10ZM190,220h10v10h-10v-10ZM200,220h10v10h-10v-10ZM240,220h10v10h-10v-10ZM250,220h10v10h-10v-10ZM260,220h10v10h-10v-10ZM270,220h10v10h-10v-10ZM300,220h10v10h-10v-10ZM320,220h10v10h-10v-10ZM10,230h10v10h-10v-10ZM20,230h10v10h-10v-10ZM100,230h10v10h-10v-10ZM110,230h10v10h-10v-10ZM120,230h10v10h-10v-10ZM150,230h10v10h-10v-10ZM170,230h10v10h-10v-10ZM180,230h10v10h-10v-10ZM190,230h10v10h-10v-10ZM200,230h10v10h-10v-10ZM210,230h10v10h-10v-10ZM220,230h10v10h-10v-10ZM260,230h10v10h-10v-10ZM270,230h10v10h-10v-10ZM280,230h10v10h-10v-10ZM320,230h10v10h-10v-10ZM0,240h10v10h-10v-10ZM20,240h10v10h-10v-10ZM30,240h10v10h-10v-10ZM40,240h10v10h-10v-10ZM60,240h10v10h-10v-10ZM90,240h10v10h-10v-10ZM100,240h10v10h-10v-10ZM120,240h10v10h-10v-10ZM130,240h10v10h-10v-10ZM160,240h10v10h-10v-10ZM170,240h10v10h-10v-10ZM180,240h10v10h-10v-10ZM190,240h10v10h-10v-10ZM200,240h10v10h-10v-10ZM210,240h10v10h-10v-10ZM240,240h10v10h-10v-10ZM250,240h10v10h-10v-10ZM260,240h10v10h-10v-10ZM270,240h10v10h-10v-10ZM280,240h10v10h-10v-10ZM290,240h10v10h-10v-10ZM310,240h10v10h-10v-10ZM80,250h10v10h-10v-10ZM90,250h10v10h-10v-10ZM130,250h10v10h-10v-10ZM140,250h10v10h-10v-10ZM160,250h10v10h-10v-10ZM170,250h10v10h-10v-10ZM180,250h10v10h-10v-10ZM190,250h10v10h-10v-10ZM200,250h10v10h-10v-10ZM230,250h10v10h-10v-10ZM240,250h10v10h-10v-10ZM280,250h10v10h-10v-10ZM290,250h10v10h-10v-10ZM320,250h10v10h-10v-10ZM80,260h10v10h-10v-10ZM90,260h10v10h-10v-10ZM110,260h10v10h-10v-10ZM130,260h10v10h-10v-10ZM140,260h10v10h-10v-10ZM160,260h10v10h-10v-10ZM180,260h10v10h-10v-10ZM220,260h10v10h-10v-10ZM240,260h10v10h-10v-10ZM260,260h10v10h-10v-10ZM280,260h10v10h-10v-10ZM290,260h10v10h-10v-10ZM300,260h10v10h-10v-10ZM310,260h10v10h-10v-10ZM80,270h10v10h-10v-10ZM110,270h10v10h-10v-10ZM170,270h10v10h-10v-10ZM180,270h10v10h-10v-10ZM200,270h10v10h-10v-10ZM210,270h10v10h-10v-10ZM220,270h10v10h-10v-10ZM230,270h10v10h-10v-10ZM240,270h10v10h-10v-10ZM280,270h10v10h-10v-10ZM310,270h10v10h-10v-10ZM320,270h10v10h-10v-10ZM90,280h10v10h-10v-10ZM110,280h10v10h-10v-10ZM130,280h10v10h-10v-10ZM150,280h10v10h-10v-10ZM170,280h10v10h-10v-10ZM200,280h10v10h-10v-10ZM210,280h10v10h-10v-10ZM220,280h10v10h-10v-10ZM240,280h10v10h-10v-10ZM250,280h10v10h-10v-10ZM260,280h10v10h-10v-10ZM270,280h10v10h-10v-10ZM280,280h10v10h-10v-10ZM290,280h10v10h-10v-10ZM320,280h10v10h-10v-10ZM80,290h10v10h-10v-10ZM90,290h10v10h-10v-10ZM120,290h10v10h-10v-10ZM140,290h10v10h-10v-10ZM150,290h10v10h-10v-10ZM160,290h10v10h-10v-10ZM170,290h10v10h-10v-10ZM240,290h10v10h-10v-10ZM260,290h10v10h-10v-10ZM280,290h10v10h-10v-10ZM290,290h10v10h-10v-10ZM310,290h10v10h-10v-10ZM110,300h10v10h-10v-10ZM120,300h10v10h-10v-10ZM130,300h10v10h-10v-10ZM140,300h10v10h-10v-10ZM180,300h10v10h-10v-10ZM200,300h10v10h-10v-10ZM220,300h10v10h-10v-10ZM240,300h10v10h-10v-10ZM250,300h10v10h-10v-10ZM280,300h10v10h-10v-10ZM320,300h10v10h-10v-10ZM80,310h10v10h-10v-10ZM90,310h10v10h-10v-10ZM110,310h10v10h-10v-10ZM130,310h10v10h-10v-10ZM140,310h10v10h-10v-10ZM150,310h10v10h-10v-10ZM160,310h10v10h-10v-10ZM170,310h10v10h-10v-10ZM180,310h10v10h-10v-10ZM200,310h10v10h-10v-10ZM210,310h10v10h-10v-10ZM240,310h10v10h-10v-10ZM250,310h10v10h-10v-10ZM290,310h10v10h-10v-10ZM90,320h10v10h-10v-10ZM100,320h10v10h-10v-10ZM130,320h10v10h-10v-10ZM160,320h10v10h-10v-10ZM170,320h10v10h-10v-10ZM180,320h10v10h-10v-10ZM210,320h10v10h-10v-10ZM220,320h10v10h-10v-10ZM240,320h10v10h-10v-10ZM280,320h10v10h-10v-10ZM310,320h10v10h-10v-10Z"/></g></mask><svg width="70" height="70" viewBox="0 0 70 70" id="SvgjsSvg1376"><path d="M70,70H0V0h70V70z M10,60h50V10H10V60z M20,20h30v30H20V20z" shape-rendering="crispEdges"/></svg><mask><g id="SvgjsG1378"><use xlink:href="#SvgjsSvg1376"/><use xlink:href="#SvgjsSvg1376" transform="matrix(-1,0,0,1,330,0)"/><use xlink:href="#SvgjsSvg1376" transform="matrix(1,0,0,-1,0,330)"/></g></mask><linearGradient x1="0" y1="0" x2="1" y2="1" id="SvgjsLinearGradient1365"><stop stop-color="#43b0dc" offset="0"/><stop stop-color="#254ac5" offset="1"/></linearGradient><filter id="white_filter" x="-20%" y="-20%" width="140%" height="140%" filterUnits="objectBoundingBox" primitiveUnits="userSpaceOnUse" color-interpolation-filters="linearRGB"><feColorMatrix type="matrix" values="0 0 0 0 255 0 0 0 0 255 0 0 0 0 255 0 0 0 1 0" x="-20%" y="-20%" width="140%" height="140%" in="SourceGraphic" result="colormatrix"/></filter></defs><use xlink:href="#SvgjsG1377"/><use xlink:href="#SvgjsG1378"/></svg></g><svg width="115" height="115" viewBox="0 0 58 58" x="192.5" y="192.5" filter="url(#logo_filter)"><defs><svg x="0px" y="0px" width="50" height="50" viewBox="0 0 50 50" id="SvgjsSvg1381"><path fill="#FFFFFF" d="M41.9,0H8.1C3.63,0,0,3.64,0,8.13v33.75C0,46.36,3.63,50,8.1,50h33.8c4.48,0,8.1-3.64,8.1-8.13V8.13C50,3.64,46.37,0,41.9,0z"/><path fill="#1677FF" d="M47,39.68v0.27c0,3.88-3.17,7.05-7.04,7.05H10.04C6.17,47,3,43.83,3,39.95v-29.9C3,6.17,6.17,3,10.04,3h29.92C43.83,3,47,6.17,47,10.05V32.8V39.68L47,39.68z M14.88,36.86c-6.86,0-8.89-5.38-5.46-8.38c1.14-0.97,3.17-1.5,4.31-1.58c4.05-0.44,7.83,1.14,12.32,3.35C22.8,34.3,18.84,36.86,14.88,36.86L14.88,36.86z M39.26,30.6c-1.76-0.61-4.14-1.5-6.78-2.47c1.58-2.73,2.82-5.91,3.7-9.26h-8.71v-3.09h10.65v-1.76H27.46v-5.2h-4.31c-0.79,0-0.79,0.79-0.79,0.79v4.5H11.62v1.76h10.74v3h-8.89v1.76h17.25c-0.62,2.21-1.5,4.23-2.46,6.08c-5.54-1.85-11.53-3.35-15.31-2.38c-2.38,0.62-3.96,1.68-4.84,2.73c-4.14,5.03-1.14,12.7,7.57,12.7c5.19,0,10.21-2.91,14.08-7.67C35.56,34.92,47,39.68,47,39.68v-6.79C47,32.89,45.59,32.71,39.26,30.6z"/></svg><clipPath id="SvgjsClipPath1382"><rect rx="4" ry="4" stroke-width="0.5" stroke="#bbbbbb" fill="none" x="0" y="0" width="50" height="50"/></clipPath></defs><rect rx="6" ry="6" fill="#FFFFFF" x="0" y="0" width="58" height="58"/><use xlink:href="#SvgjsSvg1381" clip-path="url(#SvgjsClipPath1382)" transform="matrix(1,0,0,1,4,4)"/><rect rx="4" ry="4" stroke-width="0.5" stroke="#bbbbbb" fill="none" x="4" y="4" width="50" height="50"/></svg></svg><svg version="1.1" xmlns:xlink="http://www.w3.org/1999/xlink" xmlns:svgjs="http://svgjs.dev/svgjs" width="500" height="500" viewBox="0 0 500 500" x="500"><rect width="500" height="500" x="0" y="0" fill="#ffffff"/><defs><filter id="logo_filter" x="-20%" y="-20%" width="140%" height="140%" filterUnits="objectBoundingBox" primitiveUnits="userSpaceOnUse" color-interpolation-filters="linearRGB"><feDropShadow stdDeviation="2 2" in="SourceGraphic" dx="0" dy="1" flood-color="#000000" flood-opacity="0.5" x="-20%" y="-20%" width="140%" height="140%" result="dropShadow"/></filter></defs><g><svg width="460" height="460" viewBox="0 0 370 370" x="20" y="20" style="overflow: visible;"><defs><mask><g id="SvgjsG1371"><path shape-rendering="crispEdges" d="M90,0h10v10h-10v-10ZM130,0h10v10h-10v-10ZM150,0h10v10h-10v-10ZM190,0h10v10h-10v-10ZM220,0h10v10h-10v-10ZM240,0h10v10h-10v-10ZM250,0h10v10h-10v-10ZM260,0h10v10h-10v-10ZM280,0h10v10h-10v-10ZM90,10h10v10h-10v-10ZM120,10h10v10h-10v-10ZM130,10h10v10h-10v-10ZM140,10h10v10h-10v-10ZM150,10h10v10h-10v-10ZM160,10h10v10h-10v-10ZM180,10h10v10h-10v-10ZM200,10h10v10h-10v-10ZM220,10h10v10h-10v-10ZM260,10h10v10h-10v-10ZM280,10h10v10h-10v-10ZM80,20h10v10h-10v-10ZM90,20h10v10h-10v-10ZM100,20h10v10h-10v-10ZM120,20h10v10h-10v-10ZM150,20h10v10h-10v-10ZM160,20h10v10h-10v-10ZM180,20h10v10h-10v-10ZM210,20h10v10h-10v-10ZM220,20h10v10h-10v-10ZM230,20h10v10h-10v-10ZM260,20h10v10h-10v-10ZM100,30h10v10h-10v-10ZM110,30h10v10h-10v-10ZM140,30h10v10h-10v-10ZM170,30h10v10h-10v-10ZM180,30h10v10h-10v-10ZM200,30h10v10h-10v-10ZM210,30h10v10h-10v-10ZM230,30h10v10h-10v-10ZM240,30h10v10h-10v-10ZM250,30h10v10h-10v-10ZM260,30h10v10h-10v-10ZM270,30h10v10h-10v-10ZM80,40h10v10h-10v-10ZM100,40h10v10h-10v-10ZM120,40h10v10h-10v-10ZM130,40h10v10h-10v-10ZM140,40h10v10h-10v-10ZM210,40h10v10h-10v-10ZM220,40h10v10h-10v-10ZM270,40h10v10h-10v-10ZM80,50h10v10h-10v-10ZM110,50h10v10h-10v-10ZM160,50h10v10h-10v-10ZM200,50h10v10h-10v-10ZM240,50h10v10h-10v-10ZM250,50h10v10h-10v-10ZM260,50h10v10h-10v-10ZM80,60h10v10h-10v-10ZM100,60h10v10h-10v-10ZM120,60h10v10h-10v-10ZM140,60h10v10h-10v-10ZM160,60h10v10h-10v-10ZM180,60h10v10h-10v-10ZM200,60h10v10h-10v-10ZM220,60h10v10h-10v-10ZM240,60h10v10h-10v-10ZM260,60h10v10h-10v-10ZM280,60h10v10h-10v-10ZM90,70h10v10h-10v-10ZM140,70h10v10h-10v-10ZM150,70h10v10h-10v-10ZM190,70h10v10h-10v-10ZM210,70h10v10h-10v-10ZM230,70h10v10h-10v-10ZM260,70h10v10h-10v-10ZM10,80h10v10h-10v-10ZM40,80h10v10h-10v-10ZM60,80h10v10h-10v-10ZM80,80h10v10h-10v-10ZM100,80h10v10h-10v-10ZM110,80h10v10h-10v-10ZM150,80h10v10h-10v-10ZM190,80h10v10h-10v-10ZM210,80h10v10h-10v-10ZM220,80h10v10h-10v-10ZM230,80h10v10h-10v-10ZM240,80h10v10h-10v-10ZM250,80h10v10h-10v-10ZM260,80h10v10h-10v-10ZM280,80h10v10h-10v-10ZM290,80h10v10h-10v-10ZM310,80h10v10h-10v-10ZM320,80h10v10h-10v-10ZM340,80h10v10h-10v-10ZM0,90h10v10h-10v-10ZM10,90h10v10h-10v-10ZM30,90h10v10h-10v-10ZM50,90h10v10h-10v-10ZM90,90h10v10h-10v-10ZM100,90h10v10h-10v-10ZM110,90h10v10h-10v-10ZM130,90h10v10h-10v-10ZM170,90h10v10h-10v-10ZM180,90h10v10h-10v-10ZM200,90h10v10h-10v-10ZM210,90h10v10h-10v-10ZM250,90h10v10h-10v-10ZM260,90h10v10h-10v-10ZM280,90h10v10h-10v-10ZM300,90h10v10h-10v-10ZM320,90h10v10h-10v-10ZM340,90h10v10h-10v-10ZM350,90h10v10h-10v-10ZM360,90h10v10h-10v-10ZM0,100h10v10h-10v-10ZM30,100h10v10h-10v-10ZM60,100h10v10h-10v-10ZM80,100h10v10h-10v-10ZM90,100h10v10h-10v-10ZM100,100h10v10h-10v-10ZM120,100h10v10h-10v-10ZM220,100h10v10h-10v-10ZM230,100h10v10h-10v-10ZM240,100h10v10h-10v-10ZM250,100h10v10h-10v-10ZM270,100h10v10h-10v-10ZM290,100h10v10h-10v-10ZM300,100h10v10h-10v-10ZM320,100h10v10h-10v-10ZM330,100h10v10h-10v-10ZM0,110h10v10h-10v-10ZM10,110h10v10h-10v-10ZM20,110h10v10h-10v-10ZM30,110h10v10h-10v-10ZM40,110h10v10h-10v-10ZM50,110h10v10h-10v-10ZM80,110h10v10h-10v-10ZM100,110h10v10h-10v-10ZM120,110h10v10h-10v-10ZM140,110h10v10h-10v-10ZM150,110h10v10h-10v-10ZM160,110h10v10h-10v-10ZM170,110h10v10h-10v-10ZM180,110h10v10h-10v-10ZM190,110h10v10h-10v-10ZM210,110h10v10h-10v-10ZM220,110h10v10h-10v-10ZM230,110h10v10h-10v-10ZM240,110h10v10h-10v-10ZM270,110h10v10h-10v-10ZM280,110h10v10h-10v-10ZM290,110h10v10h-10v-10ZM300,110h10v10h-10v-10ZM310,110h10v10h-10v-10ZM340,110h10v10h-10v-10ZM350,110h10v10h-10v-10ZM360,110h10v10h-10v-10ZM10,120h10v10h-10v-10ZM20,120h10v10h-10v-10ZM30,120h10v10h-10v-10ZM50,120h10v10h-10v-10ZM60,120h10v10h-10v-10ZM70,120h10v10h-10v-10ZM100,120h10v10h-10v-10ZM110,120h10v10h-10v-10ZM120,120h10v10h-10v-10ZM130,120h10v10h-10v-10ZM140,120h10v10h-10v-10ZM150,120h10v10h-10v-10ZM190,120h10v10h-10v-10ZM200,120h10v10h-10v-10ZM210,120h10v10h-10v-10ZM220,120h10v10h-10v-10ZM280,120h10v10h-10v-10ZM300,120h10v10h-10v-10ZM330,120h10v10h-10v-10ZM350,120h10v10h-10v-10ZM10,130h10v10h-10v-10ZM20,130h10v10h-10v-10ZM140,130h10v10h-10v-10ZM160,130h10v10h-10v-10ZM170,130h10v10h-10v-10ZM180,130h10v10h-10v-10ZM200,130h10v10h-10v-10ZM210,130h10v10h-10v-10ZM230,130h10v10h-10v-10ZM250,130h10v10h-10v-10ZM260,130h10v10h-10v-10ZM280,130h10v10h-10v-10ZM320,130h10v10h-10v-10ZM330,130h10v10h-10v-10ZM350,130h10v10h-10v-10ZM0,140h10v10h-10v-10ZM30,140h10v10h-10v-10ZM40,140h10v10h-10v-10ZM60,140h10v10h-10v-10ZM90,140h10v10h-10v-10ZM110,140h10v10h-10v-10ZM140,140h10v10h-10v-10ZM150,140h10v10h-10v-10ZM160,140h10v10h-10v-10ZM180,140h10v10h-10v-10ZM200,140h10v10h-10v-10ZM230,140h10v10h-10v-10ZM250,140h10v10h-10v-10ZM260,140h10v10h-10v-10ZM270,140h10v10h-10v-10ZM280,140h10v10h-10v-10ZM300,140h10v10h-10v-10ZM310,140h10v10h-10v-10ZM20,150h10v10h-10v-10ZM30,150h10v10h-10v-10ZM70,150h10v10h-10v-10ZM100,150h10v10h-10v-10ZM110,150h10v10h-10v-10ZM120,150h10v10h-10v-10ZM150,150h10v10h-10v-10ZM160,150h10v10h-10v-10ZM180,150h10v10h-10v-10ZM220,150h10v10h-10v-10ZM240,150h10v10h-10v-10ZM280,150h10v10h-10v-10ZM320,150h10v10h-10v-10ZM340,150h10v10h-10v-10ZM360,150h10v10h-10v-10ZM0,160h10v10h-10v-10ZM10,160h10v10h-10v-10ZM20,160h10v10h-10v-10ZM40,160h10v10h-10v-10ZM60,160h10v10h-10v-10ZM70,160h10v10h-10v-10ZM120,160h10v10h-10v-10ZM130,160h10v10h-10v-10ZM140,160h10v10h-10v-10ZM180,160h10v10h-10v-10ZM190,160h10v10h-10v-10ZM220,160h10v10h-10v-10ZM230,160h10v10h-10v-10ZM240,160h10v10h-10v-10ZM260,160h10v10h-10v-10ZM280,160h10v10h-10v-10ZM300,160h10v10h-10v-10ZM310,160h10v10h-10v-10ZM330,160h10v10h-10v-10ZM340,160h10v10h-10v-10ZM0,170h10v10h-10v-10ZM20,170h10v10h-10v-10ZM30,170h10v10h-10v-10ZM40,170h10v10h-10v-10ZM70,170h10v10h-10v-10ZM80,170h10v10h-10v-10ZM90,170h10v10h-10v-10ZM120,170h10v10h-10v-10ZM180,170h10v10h-10v-10ZM190,170h10v10h-10v-10ZM210,170h10v10h-10v-10ZM270,170h10v10h-10v-10ZM310,170h10v10h-10v-10ZM320,170h10v10h-10v-10ZM350,170h10v10h-10v-10ZM20,180h10v10h-10v-10ZM30,180h10v10h-10v-10ZM60,180h10v10h-10v-10ZM90,180h10v10h-10v-10ZM110,180h10v10h-10v-10ZM130,180h10v10h-10v-10ZM170,180h10v10h-10v-10ZM180,180h10v10h-10v-10ZM210,180h10v10h-10v-10ZM220,180h10v10h-10v-10ZM270,180h10v10h-10v-10ZM290,180h10v10h-10v-10ZM310,180h10v10h-10v-10ZM40,190h10v10h-10v-10ZM70,190h10v10h-10v-10ZM100,190h10v10h-10v-10ZM110,190h10v10h-10v-10ZM120,190h10v10h-10v-10ZM150,190h10v10h-10v-10ZM170,190h10v10h-10v-10ZM210,190h10v10h-10v-10ZM240,190h10v10h-10v-10ZM260,190h10v10h-10v-10ZM270,190h10v10h-10v-10ZM280,190h10v10h-10v-10ZM290,190h10v10h-10v-10ZM340,190h10v10h-10v-10ZM0,200h10v10h-10v-10ZM10,200h10v10h-10v-10ZM30,200h10v10h-10v-10ZM50,200h10v10h-10v-10ZM60,200h10v10h-10v-10ZM90,200h10v10h-10v-10ZM100,200h10v10h-10v-10ZM110,200h10v10h-10v-10ZM160,200h10v10h-10v-10ZM170,200h10v10h-10v-10ZM190,200h10v10h-10v-10ZM200,200h10v10h-10v-10ZM210,200h10v10h-10v-10ZM220,200h10v10h-10v-10ZM230,200h10v10h-10v-10ZM260,200h10v10h-10v-10ZM270,200h10v10h-10v-10ZM290,200h10v10h-10v-10ZM300,200h10v10h-10v-10ZM340,200h10v10h-10v-10ZM350,200h10v10h-10v-10ZM360,200h10v10h-10v-10ZM10,210h10v10h-10v-10ZM30,210h10v10h-10v-10ZM40,210h10v10h-10v-10ZM70,210h10v10h-10v-10ZM80,210h10v10h-10v-10ZM120,210h10v10h-10v-10ZM140,210h10v10h-10v-10ZM160,210h10v10h-10v-10ZM180,210h10v10h-10v-10ZM190,210h10v10h-10v-10ZM200,210h10v10h-10v-10ZM220,210h10v10h-10v-10ZM230,210h10v10h-10v-10ZM270,210h10v10h-10v-10ZM280,210h10v10h-10v-10ZM290,210h10v10h-10v-10ZM300,210h10v10h-10v-10ZM310,210h10v10h-10v-10ZM320,210h10v10h-10v-10ZM330,210h10v10h-10v-10ZM340,210h10v10h-10v-10ZM0,220h10v10h-10v-10ZM20,220h10v10h-10v-10ZM60,220h10v10h-10v-10ZM70,220h10v10h-10v-10ZM90,220h10v10h-10v-10ZM110,220h10v10h-10v-10ZM140,220h10v10h-10v-10ZM170,220h10v10h-10v-10ZM190,220h10v10h-10v-10ZM200,220h10v10h-10v-10ZM230,220h10v10h-10v-10ZM250,220h10v10h-10v-10ZM260,220h10v10h-10v-10ZM270,220h10v10h-10v-10ZM30,230h10v10h-10v-10ZM50,230h10v10h-10v-10ZM80,230h10v10h-10v-10ZM90,230h10v10h-10v-10ZM100,230h10v10h-10v-10ZM120,230h10v10h-10v-10ZM140,230h10v10h-10v-10ZM200,230h10v10h-10v-10ZM210,230h10v10h-10v-10ZM220,230h10v10h-10v-10ZM250,230h10v10h-10v-10ZM340,230h10v10h-10v-10ZM350,230h10v10h-10v-10ZM360,230h10v10h-10v-10ZM10,240h10v10h-10v-10ZM20,240h10v10h-10v-10ZM30,240h10v10h-10v-10ZM40,240h10v10h-10v-10ZM60,240h10v10h-10v-10ZM70,240h10v10h-10v-10ZM130,240h10v10h-10v-10ZM140,240h10v10h-10v-10ZM170,240h10v10h-10v-10ZM180,240h10v10h-10v-10ZM190,240h10v10h-10v-10ZM200,240h10v10h-10v-10ZM210,240h10v10h-10v-10ZM220,240h10v10h-10v-10ZM240,240h10v10h-10v-10ZM250,240h10v10h-10v-10ZM270,240h10v10h-10v-10ZM280,240h10v10h-10v-10ZM300,240h10v10h-10v-10ZM340,240h10v10h-10v-10ZM0,250h10v10h-10v-10ZM10,250h10v10h-10v-10ZM30,250h10v10h-10v-10ZM70,250h10v10h-10v-10ZM80,250h10v10h-10v-10ZM140,250h10v10h-10v-10ZM170,250h10v10h-10v-10ZM180,250h10v10h-10v-10ZM190,250h10v10h-10v-10ZM210,250h10v10h-10v-10ZM230,250h10v10h-10v-10ZM250,250h10v10h-10v-10ZM260,250h10v10h-10v-10ZM270,250h10v10h-10v-10ZM280,250h10v10h-10v-10ZM290,250h10v10h-10v-10ZM310,250h10v10h-10v-10ZM320,250h10v10h-10v-10ZM340,250h10v10h-10v-10ZM360,250h10v10h-10v-10ZM30,260h10v10h-10v-10ZM50,260h10v10h-10v-10ZM60,260h10v10h-10v-10ZM70,260h10v10h-10v-10ZM100,260h10v10h-10v-10ZM110,260h10v10h-10v-10ZM140,260h10v10h-10v-10ZM150,260h10v10h-10v-10ZM200,260h10v10h-10v-10ZM230,260h10v10h-10v-10ZM240,260h10v10h-10v-10ZM250,260h10v10h-10v-10ZM260,260h10v10h-10v-10ZM270,260h10v10h-10v-10ZM300,260h10v10h-10v-10ZM310,260h10v10h-10v-10ZM330,260h10v10h-10v-10ZM340,260h10v10h-10v-10ZM80,270h10v10h-10v-10ZM140,270h10v10h-10v-10ZM150,270h10v10h-10v-10ZM160,270h10v10h-10v-10ZM170,270h10v10h-10v-10ZM190,270h10v10h-10v-10ZM200,270h10v10h-10v-10ZM210,270h10v10h-10v-10ZM230,270h10v10h-10v-10ZM270,270h10v10h-10v-10ZM280,270h10v10h-10v-10ZM300,270h10v10h-10v-10ZM320,270h10v10h-10v-10ZM340,270h10v10h-10v-10ZM350,270h10v10h-10v-10ZM0,280h10v10h-10v-10ZM10,280h10v10h-10v-10ZM20,280h10v10h-10v-10ZM40,280h10v10h-10v-10ZM60,280h10v10h-10v-10ZM70,280h10v10h-10v-10ZM80,280h10v10h-10v-10ZM110,280h10v10h-10v-10ZM140,280h10v10h-10v-10ZM150,280h10v10h-10v-10ZM180,280h10v10h-10v-10ZM190,280h10v10h-10v-10ZM220,280h10v10h-10v-10ZM240,280h10v10h-10v-10ZM260,280h10v10h-10v-10ZM270,280h10v10h-10v-10ZM280,280h10v10h-10v-10ZM290,280h10v10h-10v-10ZM300,280h10v10h-10v-10ZM310,280h10v10h-10v-10ZM320,280h10v10h-10v-10ZM350,280h10v10h-10v-10ZM80,290h10v10h-10v-10ZM90,290h10v10h-10v-10ZM130,290h10v10h-10v-10ZM140,290h10v10h-10v-10ZM180,290h10v10h-10v-10ZM200,290h10v10h-10v-10ZM220,290h10v10h-10v-10ZM250,290h10v10h-10v-10ZM280,290h10v10h-10v-10ZM320,290h10v10h-10v-10ZM340,290h10v10h-10v-10ZM100,300h10v10h-10v-10ZM120,300h10v10h-10v-10ZM140,300h10v10h-10v-10ZM150,300h10v10h-10v-10ZM180,300h10v10h-10v-10ZM210,300h10v10h-10v-10ZM220,300h10v10h-10v-10ZM230,300h10v10h-10v-10ZM260,300h10v10h-10v-10ZM270,300h10v10h-10v-10ZM280,300h10v10h-10v-10ZM300,300h10v10h-10v-10ZM320,300h10v10h-10v-10ZM330,300h10v10h-10v-10ZM340,300h10v10h-10v-10ZM100,310h10v10h-10v-10ZM130,310h10v10h-10v-10ZM150,310h10v10h-10v-10ZM160,310h10v10h-10v-10ZM180,310h10v10h-10v-10ZM190,310h10v10h-10v-10ZM210,310h10v10h-10v-10ZM230,310h10v10h-10v-10ZM280,310h10v10h-10v-10ZM320,310h10v10h-10v-10ZM340,310h10v10h-10v-10ZM350,310h10v10h-10v-10ZM80,320h10v10h-10v-10ZM90,320h10v10h-10v-10ZM120,320h10v10h-10v-10ZM130,320h10v10h-10v-10ZM140,320h10v10h-10v-10ZM150,320h10v10h-10v-10ZM180,320h10v10h-10v-10ZM200,320h10v10h-10v-10ZM280,320h10v10h-10v-10ZM290,320h10v10h-10v-10ZM300,320h10v10h-10v-10ZM310,320h10v10h-10v-10ZM320,320h10v10h-10v-10ZM330,320h10v10h-10v-10ZM340,320h10v10h-10v-10ZM360,320h10v10h-10v-10ZM90,330h10v10h-10v-10ZM100,330h10v10h-10v-10ZM120,330h10v10h-10v-10ZM130,330h10v10h-10v-10ZM170,330h10v10h-10v-10ZM180,330h10v10h-10v-10ZM190,330h10v10h-10v-10ZM220,330h10v10h-10v-10ZM240,330h10v10h-10v-10ZM250,330h10v10h-10v-10ZM260,330h10v10h-10v-10ZM270,330h10v10h-10v-10ZM300,330h10v10h-10v-10ZM350,330h10v10h-10v-10ZM90,340h10v10h-10v-10ZM120,340h10v10h-10v-10ZM140,340h10v10h-10v-10ZM180,340h10v10h-10v-10ZM190,340h10v10h-10v-10ZM210,340h10v10h-10v-10ZM220,340h10v10h-10v-10ZM230,340h10v10h-10v-10ZM240,340h10v10h-10v-10ZM270,340h10v10h-10v-10ZM290,340h10v10h-10v-10ZM300,340h10v10h-10v-10ZM310,340h10v10h-10v-10ZM340,340h10v10h-10v-10ZM350,340h10v10h-10v-10ZM80,350h10v10h-10v-10ZM90,350h10v10h-10v-10ZM120,350h10v10h-10v-10ZM130,350h10v10h-10v-10ZM160,350h10v10h-10v-10ZM170,350h10v10h-10v-10ZM190,350h10v10h-10v-10ZM200,350h10v10h-10v-10ZM210,350h10v10h-10v-10ZM220,350h10v10h-10v-10ZM230,350h10v10h-10v-10ZM270,350h10v10h-10v-10ZM300,350h10v10h-10v-10ZM320,350h10v10h-10v-10ZM340,350h10v10h-10v-10ZM350,350h10v10h-10v-10ZM90,360h10v10h-10v-10ZM120,360h10v10h-10v-10ZM170,360h10v10h-10v-10ZM180,360h10v10h-10v-10ZM220,360h10v10h-10v-10ZM260,360h10v10h-10v-10ZM270,360h10v10h-10v-10ZM290,360h10v10h-10v-10ZM300,360h10v10h-10v-10ZM330,360h10v10h-10v-10ZM350,360h10v10h-10v-10ZM360,360h10v10h-10v-10Z"/></g></mask><svg width="70" height="70" viewBox="0 0 70 70" id="SvgjsSvg1370"><path d="M70,70H0V0h70V70z M10,60h50V10H10V60z M20,20h30v30H20V20z" shape-rendering="crispEdges"/></svg><mask><g id="SvgjsG1372"><use xlink:href="#SvgjsSvg1370"/><use xlink:href="#SvgjsSvg1370" transform="matrix(-1,0,0,1,370,0)"/><use xlink:href="#SvgjsSvg1370" transform="matrix(1,0,0,-1,0,370)"/></g></mask><linearGradient x1="0" y1="0" x2="1" y2="1" id="SvgjsLinearGradient1365"><stop stop-color="#43b0dc" offset="0"/><stop stop-color="#254ac5" offset="1"/></linearGradient><filter id="white_filter" x="-20%" y="-20%" width="140%" height="140%" filterUnits="objectBoundingBox" primitiveUnits="userSpaceOnUse" color-interpolation-filters="linearRGB"><feColorMatrix type="matrix" values="0 0 0 0 255 0 0 0 0 255 0 0 0 0 255 0 0 0 1 0" x="-20%" y="-20%" width="140%" height="140%" in="SourceGraphic" result="colormatrix"/></filter></defs><use xlink:href="#SvgjsG1371"/><use xlink:href="#SvgjsG1372"/></svg></g><svg width="115" height="115" viewBox="0 0 58 58" x="192.5" y="192.5" filter="url(#logo_filter)"><defs><svg x="0px" y="0px" width="50" height="50" viewBox="0 0 50 50" id="SvgjsSvg1373"><path fill="#FFFFFF" stroke="#FFFFFF" stroke-width="6" stroke-linejoin="round" stroke-miterlimit="10" d="M32.86,17.88c0.51,0,1.01,0.04,1.5,0.09c-1.35-6.29-8.08-10.96-15.75-10.96C10.03,7.01,3,12.86,3,20.29c0,4.29,2.34,7.81,6.25,10.54l-1.56,4.7l5.46-2.74c1.95,0.39,3.52,0.78,5.47,0.78c0.49,0,0.98-0.02,1.46-0.06c-0.3-1.04-0.48-2.14-0.48-3.27C19.59,23.42,25.44,17.88,32.86,17.88L32.86,17.88z M47,30.1c0-6.24-6.25-11.33-13.26-11.33c-7.43,0-13.28,5.09-13.28,11.33c0,6.25,5.85,11.33,13.28,11.33c1.55,0,3.12-0.39,4.68-0.79l4.28,2.35l-1.17-3.9C44.67,36.74,47,33.62,47,30.1L47,30.1z"/><path fill="#51C332" d="M32.86,17.88c0.51,0,1.01,0.04,1.5,0.09c-1.35-6.29-8.07-10.96-15.75-10.96C10.03,7.01,3,12.86,3,20.29c0,4.29,2.34,7.81,6.25,10.54l-1.56,4.7l5.46-2.74c1.95,0.39,3.52,0.78,5.47,0.78c0.49,0,0.97-0.02,1.46-0.06c-0.3-1.04-0.48-2.14-0.48-3.27C19.59,23.42,25.44,17.88,32.86,17.88L32.86,17.88z M24.36,13.33c1.33,0,2.41,1.08,2.41,2.41s-1.08,2.41-2.41,2.41s-2.41-1.08-2.41-2.41S23.02,13.33,24.36,13.33L24.36,13.33z M13.43,18.21c-1.33,0-2.41-1.08-2.41-2.41s1.08-2.41,2.41-2.41s2.41,1.08,2.41,2.41S14.77,18.21,13.43,18.21L13.43,18.21z M47,30.1c0-6.24-6.25-11.33-13.26-11.33c-7.43,0-13.28,5.09-13.28,11.33c0,6.25,5.85,11.33,13.28,11.33c1.55,0,3.12-0.39,4.68-0.78l4.28,2.35l-1.17-3.9C44.67,36.74,47,33.62,47,30.1L47,30.1z M29.66,28.35c-0.95,0-1.72-0.77-1.72-1.72s0.77-1.72,1.72-1.72c0.95,0,1.72,0.77,1.72,1.72S30.61,28.35,29.66,28.35L29.66,28.35z M38.24,28.45c-0.95,0-1.72-0.77-1.72-1.72s0.77-1.72,1.72-1.72s1.72,0.77,1.72,1.72S39.19,28.45,38.24,28.45L38.24,28.45z"/></svg><clipPath id="SvgjsClipPath1374"><rect rx="4" ry="4" stroke-width="0.5" stroke="#bbbbbb" fill="none" x="0" y="0" width="50" height="50"/></clipPath></defs><rect rx="6" ry="6" fill="#FFFFFF" x="0" y="0" width="58" height="58"/><use xlink:href="#SvgjsSvg1373" clip-path="url(#SvgjsClipPath1374)" transform="matrix(1,0,0,1,4,4)"/><rect rx="4" ry="4" stroke-width="0.5" stroke="#bbbbbb" fill="none" x="4" y="4" width="50" height="50"/></svg></svg></svg>
